<?xml version="1.0" encoding="UTF-8" standalone="no"?>
<!-- Created with Inkscape (http://www.inkscape.org/) -->

<svg
   xmlns:dc="http://purl.org/dc/elements/1.1/"
   xmlns:cc="http://creativecommons.org/ns#"
   xmlns:rdf="http://www.w3.org/1999/02/22-rdf-syntax-ns#"
   xmlns:svg="http://www.w3.org/2000/svg"
   xmlns="http://www.w3.org/2000/svg"
   xmlns:sodipodi="http://sodipodi.sourceforge.net/DTD/sodipodi-0.dtd"
   xmlns:inkscape="http://www.inkscape.org/namespaces/inkscape"
   width="210mm"
   height="297mm"
   viewBox="0 0 744.09448819 1052.3622047"
   id="svg2"
   version="1.1"
   inkscape:version="0.91 r13725"
   sodipodi:docname="logo.svg">
  <defs
     id="defs4">
    <clipPath
       clipPathUnits="userSpaceOnUse"
       id="clipPath3423">
      <rect
         style="fill:#800000"
         id="rect3425"
         width="180"
         height="135"
         x="230"
         y="307.36221"
         clip-path="none" />
    </clipPath>
    <clipPath
       id="clipPath3441"
       clipPathUnits="userSpaceOnUse">
      <path
         inkscape:connector-curvature="0"
         id="path3443"
         d="M 0,500 500,500 500,0 0,0 0,500 Z" />
    </clipPath>
  </defs>
  <sodipodi:namedview
     id="base"
     pagecolor="#ffffff"
     bordercolor="#666666"
     borderopacity="1.0"
     inkscape:pageopacity="0.0"
     inkscape:pageshadow="2"
     inkscape:zoom="0.82810102"
     inkscape:cx="446.6368"
     inkscape:cy="521.54689"
     inkscape:document-units="px"
     inkscape:current-layer="layer1"
     showgrid="true"
     showguides="false"
     inkscape:window-width="1279"
     inkscape:window-height="625"
     inkscape:window-x="41"
     inkscape:window-y="21"
     inkscape:window-maximized="0">
    <inkscape:grid
       type="xygrid"
       id="grid3402" />
  </sodipodi:namedview>
  <metadata
     id="metadata7">
    <rdf:RDF>
      <cc:Work
         rdf:about="">
        <dc:format>image/svg+xml</dc:format>
        <dc:type
           rdf:resource="http://purl.org/dc/dcmitype/StillImage" />
        <dc:title></dc:title>
      </cc:Work>
    </rdf:RDF>
  </metadata>
  <g
     inkscape:label="Layer 1"
     inkscape:groupmode="layer"
     id="layer1">
    <g
       transform="matrix(1.25,0,0,-1.25,60.050946,842.73555)"
       inkscape:label="logo1"
       id="g3435"
       style="fill:#000000">
      <g
         id="g3437"
         style="fill:#000000">
        <g
           clip-path="url(#clipPath3441)"
           id="g3439"
           style="fill:#000000">
          <g
             transform="translate(261.6934,38.6367)"
             id="g3445"
             style="fill:#000000">
            <path
               inkscape:connector-curvature="0"
               id="path3447"
               style="fill:#000000;fill-opacity:1;fill-rule:nonzero;stroke:none"
               d="m 0,0 c -3.565,-0.961 -6.652,-3.5 -8.306,-6.795 -1.865,-3.615 -1.883,-8.103 -0.078,-11.751 1.686,-3.455 4.939,-6.119 8.692,-7.019 5.085,-1.328 10.836,0.758 13.863,5.058 3.183,4.245 3.368,10.442 0.449,14.87 C 11.649,-0.842 5.425,1.579 0,0 m -29.828,-0.058 c -2.026,-0.609 -3.913,-1.698 -5.434,-3.173 -4.566,-4.229 -5.37,-11.767 -1.796,-16.862 3.629,-5.687 11.856,-7.589 17.603,-4.056 5.641,3.137 8.19,10.678 5.526,16.578 -2.421,6.041 -9.683,9.491 -15.899,7.513 M 29.904,4.073 C 28.002,3.638 26.188,2.792 24.648,1.579 19.761,-2.112 18.153,-9.354 21.016,-14.778 c 2.861,-5.963 10.547,-8.912 16.656,-6.32 6.289,2.341 9.919,9.902 7.722,16.264 -1.865,6.389 -9.021,10.507 -15.49,8.907 m -88.239,0.032 c -1.792,-0.41 -3.497,-1.192 -4.966,-2.295 -5.407,-3.841 -6.955,-11.959 -3.341,-17.522 3.331,-5.678 11.187,-7.966 17.038,-4.934 5.899,2.734 8.958,10.162 6.662,16.254 -2.036,6.178 -9.069,10.092 -15.393,8.497 m 117.928,7.97 C 52.974,11.354 47.668,4.993 48.141,-1.648 c 0.16,-6.676 6.106,-12.519 12.784,-12.576 6.303,-0.321 12.307,4.508 13.386,10.714 0.915,4.511 -0.79,9.407 -4.257,12.421 -2.818,2.495 -6.732,3.684 -10.461,3.164 m -146.4,-0.132 c -1.7,-0.381 -3.322,-1.106 -4.75,-2.108 -5.168,-3.523 -7.111,-10.922 -4.272,-16.51 2.728,-5.999 10.317,-9.104 16.458,-6.67 6.459,2.2 10.263,9.889 8.044,16.353 -1.856,6.385 -9.012,10.543 -15.48,8.935 m 172.7,11.51 C 79.011,22.209 74.095,14.851 75.603,8.01 c 1.166,-7.023 8.709,-12.064 15.65,-10.427 6.895,1.249 11.814,8.641 10.275,15.489 -1.188,7.002 -8.714,12.013 -15.635,10.381 m -200.285,-0.036 c -7.01,-1.579 -11.636,-9.521 -9.473,-16.397 1.764,-6.943 9.794,-11.354 16.593,-9.035 6.785,1.896 11.001,9.795 8.746,16.486 -1.828,6.561 -9.293,10.79 -15.866,8.946 m 225.623,15.082 c -5.012,-1.042 -9.183,-5.242 -10.144,-10.276 -1.392,-6.114 2.302,-12.825 8.186,-14.961 5.922,-2.441 13.318,0.253 16.303,5.911 2.963,5.122 1.842,12.118 -2.55,16.078 -3.09,2.923 -7.642,4.144 -11.795,3.248 m -250.856,0.052 c -7.006,-1.456 -11.751,-9.262 -9.762,-16.153 1.603,-6.991 9.551,-11.582 16.404,-9.404 6.785,1.746 11.168,9.474 9.123,16.189 -1.654,6.675 -9.1,11.122 -15.765,9.368 m 132.242,1.005 c -1.125,-0.548 -1.737,-1.815 -1.68,-3.036 -0.039,-4.907 0.008,-9.808 -0.024,-14.715 0.028,-0.928 -0.033,-1.965 0.583,-2.751 1.549,-2.302 6.023,-1.572 6.211,1.409 0.087,5.496 0.06,11.003 0.014,16.502 -0.014,2.503 -3.101,3.657 -5.104,2.591 m -11.029,0.037 c -1.328,-0.598 -1.856,-2.128 -1.75,-3.5 0.082,-5.363 -0.143,-10.737 0.115,-16.088 0.771,-3.253 6.412,-2.983 6.664,0.436 0.102,5.503 0.061,11.021 0.019,16.524 -0.019,2.471 -3.036,3.63 -5.048,2.628 m 153.516,17.345 c -6.858,-0.975 -12.067,-7.993 -10.938,-14.846 0.777,-6.837 7.58,-12.2 14.421,-11.338 7.069,0.537 12.751,7.529 11.791,14.565 -0.574,7.309 -8.076,12.995 -15.274,11.619 m -297.721,0 c -1.805,-0.39 -3.523,-1.172 -5.016,-2.261 -5.067,-3.592 -6.881,-10.928 -4.034,-16.455 2.729,-5.869 10.107,-8.929 16.188,-6.669 6.437,2.067 10.391,9.555 8.394,16.038 -1.673,6.563 -8.94,10.96 -15.532,9.347 m 95.58,3.744 c -3.219,-3.088 -4.217,-7.671 -4.699,-11.94 -2.949,1.011 -5.746,2.544 -7.946,4.778 -2.766,2.755 -5.435,5.668 -8.77,7.76 -3.808,2.63 -8.687,3.192 -13.184,2.525 -2.287,-0.416 -4.745,-0.819 -6.578,-2.369 -4.24,-3.29 -5.788,-9.547 -3.68,-14.464 0.855,-2.075 2.499,-3.737 4.489,-4.753 -0.281,2.527 -0.713,5.173 0.202,7.622 0.693,2.162 2.568,3.878 4.795,4.35 3.065,0.657 6.299,-0.34 8.765,-2.192 2.173,-1.804 3.937,-4.056 5.664,-6.279 3.983,-5.187 6.225,-11.604 10.957,-16.22 3.371,-3.226 7.974,-4.854 12.54,-5.412 4.167,-0.35 8.19,1.621 11.235,4.35 4.42,3.997 7.461,9.605 8.095,15.555 -3.032,-1.892 -6.39,-3.785 -10.097,-3.51 -1.626,0.198 -3.399,0.556 -4.672,1.63 -1.295,3.133 -1.897,7.057 0.074,10.047 1.801,2.684 5.177,3.736 8.268,3.83 5.269,0.13 10.626,-1.75 14.558,-5.291 1.769,-1.7 3.514,-3.765 3.702,-6.324 0.928,-8.122 -0.161,-16.299 0.115,-24.445 0.069,-1.702 1.526,-3.164 3.211,-3.347 2.054,-0.309 3.932,0.826 5.462,2.057 0.115,6.432 0.137,12.863 0.184,19.294 -0.06,2.434 1.157,5.043 3.422,6.128 3.05,1.305 6.435,1.522 9.711,1.273 3.202,0.237 6.495,0.042 9.504,-1.172 2.265,-0.928 3.579,-3.427 3.639,-5.802 0.074,-6.574 0.074,-13.158 0.206,-19.734 1.544,-1.213 3.413,-2.361 5.467,-2.04 1.893,0.188 3.349,1.99 3.238,3.872 0.065,4.897 -0.22,9.791 -0.279,14.683 0.037,3.789 -0.231,7.707 0.871,11.378 2.537,5.001 7.866,8.021 13.216,9.1 4.058,0.773 8.899,0.602 12.008,-2.482 2.848,-2.931 2.334,-7.554 0.86,-11.029 -1.287,-1.07 -3.045,-1.437 -4.671,-1.62 -3.708,-0.272 -7.075,1.607 -10.102,3.512 0.896,-7.74 5.682,-15.196 12.751,-18.654 4.944,-2.471 10.735,-0.933 15.398,1.439 4.801,2.521 7.622,7.35 10.216,11.892 2.615,4.688 5.683,9.177 9.588,12.889 2.513,2.12 5.952,3.304 9.229,2.637 2.126,-0.428 3.977,-1.978 4.745,-4.014 1.066,-2.531 0.647,-5.331 0.322,-7.964 1.469,0.797 2.838,1.853 3.725,3.296 3.551,5.573 1.359,13.943 -4.543,16.964 -3.735,1.493 -7.902,1.916 -11.865,1.282 -4.911,-0.771 -8.871,-4.102 -12.284,-7.493 -3,-3.13 -6.322,-6.528 -10.763,-7.317 -0.377,4.217 -1.497,8.697 -4.64,11.733 -3.036,2.909 -7.271,3.936 -11.259,4.794 -1.994,0.508 -4.061,0.143 -6.027,-0.269 C 22.376,64.058 17.79,61.738 13.344,59.327 9.631,56.649 5.075,55.608 0.655,54.788 c -8.337,-1.41 -16.954,-1.342 -25.25,0.283 -3.358,0.741 -6.795,1.541 -9.753,3.357 -2.425,1.666 -5.14,2.837 -7.777,4.119 -3.845,1.7 -7.947,3.243 -12.205,3.165 -4.479,-0.785 -9.284,-1.815 -12.707,-5.03 m 221.876,17.341 c -3.611,-0.818 -6.804,-3.244 -8.582,-6.487 -1.992,-3.545 -2.172,-8.025 -0.514,-11.732 1.609,-3.684 4.992,-6.536 8.903,-7.477 4.808,-1.242 10.21,0.532 13.34,4.385 3.45,4.035 4.032,10.209 1.406,14.82 -2.71,5.08 -8.958,7.883 -14.553,6.491 M 50.416,73.214 c -0.594,-0.64 -1.517,-2.007 -0.405,-2.606 1.801,-0.977 4.124,-1.038 5.59,-2.604 1.181,-1.332 0.556,-3.224 0.11,-4.727 2.003,1.414 4.166,2.582 6.22,3.922 2.256,1.456 3.818,3.795 4.758,6.276 0.235,2.917 -2.985,5.255 -5.727,4.643 -3.831,-0.665 -7.777,-2.067 -10.546,-4.904 m -136.791,4.487 c -1.563,-0.698 -2.743,-2.237 -2.761,-3.987 0.868,-2.71 2.65,-5.181 5.08,-6.703 1.98,-1.245 4.029,-2.384 5.94,-3.743 -0.427,1.497 -1.071,3.377 0.092,4.708 1.442,1.594 3.775,1.636 5.577,2.616 1.043,0.476 0.381,1.742 -0.157,2.359 -2.113,2.472 -5.273,3.738 -8.31,4.653 -1.764,0.404 -3.762,1.071 -5.461,0.097 m -97.391,0.367 c -1.746,-0.464 -3.395,-1.29 -4.805,-2.421 -5.287,-4.009 -6.596,-12.168 -2.812,-17.622 3.492,-5.535 11.323,-7.587 17.075,-4.467 5.857,2.875 8.756,10.4 6.294,16.453 -2.21,6.177 -9.441,9.896 -15.752,8.057 m 274.242,1.977 c -1.621,-2.407 -4.245,-3.749 -6.313,-5.692 -0.857,-0.685 -0.885,-1.967 -0.187,-2.78 1.488,-1.828 4.061,-2.283 6.298,-2.039 1.318,3.138 4.819,4.538 6.358,7.446 0.211,3.022 -3.937,3.746 -6.156,3.065 M -118.807,78.4 c -0.661,-1.056 0.013,-2.261 0.831,-2.997 1.893,-1.827 4.125,-3.42 5.301,-5.865 2.128,-0.24 4.516,0.166 6.064,1.759 0.721,0.723 1.07,2.026 0.262,2.811 -2.021,2.165 -4.989,3.367 -6.5,6.023 -2.049,0.29 -4.714,0.203 -5.958,-1.731 m 228.104,10.387 c -2.177,-1.302 -1.833,-4.272 -2.301,-6.437 -1.664,-1.795 -4.999,-0.587 -6.239,-2.93 -0.506,-1.489 -0.767,-3.35 0.142,-4.741 1.134,-1.214 3.009,-1.241 4.561,-1.181 3.033,0.17 5.251,2.519 7.028,4.741 0.613,0.647 0.603,1.575 0.787,2.389 0.272,1.88 1.414,3.578 1.331,5.511 -0.435,2.229 -3.242,3.763 -5.309,2.648 M -135.05,88.675 c -1.337,-0.749 -2.416,-2.309 -1.843,-3.886 0.566,-1.911 1.259,-3.784 1.535,-5.773 0.827,-1.497 2.109,-2.714 3.399,-3.828 2.132,-1.845 5.352,-2.204 7.915,-1.116 1.838,1.047 1.442,3.661 0.882,5.348 -1.24,2.351 -4.58,1.13 -6.242,2.938 -0.29,1.875 -0.318,3.855 -1.264,5.555 -0.974,1.351 -2.999,1.595 -4.382,0.762 M 33.497,88.279 c -2.435,-2.287 -3.088,-5.698 -4.943,-8.383 -0.561,-1.649 -0.943,-3.367 -1.415,-5.051 2.737,0.306 5.499,1.124 8.259,0.558 1.37,-0.224 2.573,-0.945 3.882,-1.373 1.354,0 2.705,0.225 4.065,0.299 -0.882,2.697 1.741,5.004 1.162,7.613 -1.898,2.19 -3.316,4.745 -5.214,6.922 -1.703,1.121 -4.418,1.092 -5.796,-0.585 m -94.956,0.783 c -1.695,-1.563 -2.661,-3.725 -4.153,-5.467 -0.657,-0.863 -1.75,-1.7 -1.415,-2.935 0.501,-2.1 1.879,-4.085 1.273,-6.331 1.34,-0.069 2.673,-0.293 4.019,-0.303 1.25,0.387 2.393,1.083 3.693,1.332 2.825,0.635 5.683,-0.17 8.489,-0.529 -0.446,1.692 -0.841,3.405 -1.396,5.059 -1.865,2.693 -2.517,6.124 -4.97,8.416 -1.333,1.612 -3.79,1.594 -5.54,0.758 m 141.724,8.935 c -3.928,-1.127 -6.804,-4.416 -8.485,-8.008 -3.307,-1.951 -6.895,-4.266 -8.103,-8.148 3.119,-0.18 6.578,-0.598 8.898,-2.927 1.295,-1.204 1.745,-2.949 2.416,-4.525 1.832,1.152 3.633,2.426 4.947,4.171 1.318,1.539 2.123,3.404 3.142,5.128 1.912,2.13 5.15,2.773 6.602,5.392 0.666,1.99 0.942,4.185 0.51,6.251 -0.295,1.503 -1.517,2.931 -3.129,2.95 -2.269,-0.023 -4.617,0.55 -6.798,-0.284 m -186.885,0.408 c -1.736,-0.183 -3.891,0.309 -5.127,-1.278 -1.612,-2.231 -1.097,-5.25 -0.454,-7.745 1.226,-2.737 4.479,-3.472 6.509,-5.429 1.038,-1.433 1.612,-3.157 2.719,-4.557 1.415,-2.109 3.432,-3.693 5.573,-5.015 0.671,1.579 1.12,3.343 2.434,4.543 2.325,2.323 5.775,2.742 8.898,2.917 -1.144,3.475 -4.166,5.901 -7.281,7.579 -1.244,0.519 -1.479,1.957 -2.164,2.967 -2.351,3.68 -6.605,6.518 -11.107,6.018 m 279.374,3.495 c -2.141,-0.435 -4.171,-1.405 -5.848,-2.812 -4.81,-3.87 -6.165,-11.248 -3.054,-16.587 3.072,-5.755 10.707,-8.397 16.674,-5.715 6.022,2.395 9.482,9.616 7.552,15.812 -1.69,6.459 -8.807,10.787 -15.324,9.302 m -373.145,0.199 c -6.813,-1.144 -11.819,-8.269 -10.547,-15.074 0.946,-6.971 8.145,-12.216 15.072,-10.96 7.028,0.915 12.348,8.201 11.012,15.177 -0.965,7.135 -8.499,12.408 -15.537,10.857 m 301.305,-0.3 c -1.107,-1.409 -2.609,-2.628 -2.918,-4.492 -3.169,-1.911 -5.053,-6.147 -3.454,-9.643 2.27,-2.674 6.95,-3.109 9.504,-0.577 1.726,1.819 1.745,4.497 1.732,6.845 1.479,1.445 2.187,3.496 2.403,5.51 -0.161,2.398 -2.605,4.401 -4.99,4.062 -1.02,-0.114 -1.671,-0.974 -2.277,-1.705 m -231.389,-3.243 c 0.349,-1.714 1.024,-3.395 2.302,-4.64 -0.037,-2.437 0.022,-5.278 1.961,-7.061 2.559,-2.217 6.684,-1.757 9.049,0.508 0.974,1.217 0.795,2.915 0.653,4.363 -0.317,2.369 -1.976,4.277 -3.886,5.587 -0.529,2.346 -2.554,3.889 -4.006,5.677 -2.733,1.846 -6.854,-1.314 -6.073,-4.434 m 273.516,-2.214 c -10.734,-13.964 -25.462,-24.57 -41.636,-31.378 -1.024,-0.402 -2.046,-0.883 -2.743,-1.766 0.722,-1.648 2.581,-2.173 4.157,-2.64 3.253,-0.783 6.827,-1.006 9.968,0.32 4.127,1.751 7.948,4.167 11.463,6.938 12.058,9.605 20.519,23.21 25.301,37.754 -2.218,-3.03 -4.125,-6.306 -6.51,-9.228 m -314.974,9.179 c 4.034,-12.292 10.699,-23.832 19.927,-32.964 4.801,-4.704 10.281,-8.82 16.464,-11.532 3.092,-1.428 6.652,-1.282 9.909,-0.563 1.557,0.44 3.381,0.854 4.341,2.276 0.266,1.266 -1.337,1.641 -2.196,2.088 -19.032,7.904 -36.041,21.216 -47.049,38.771 -0.404,0.683 -0.863,1.336 -1.396,1.924 m 191.658,3.022 c -1.577,-1.658 -1.686,-4.135 -1.543,-6.297 0.238,-1.332 -0.828,-2.372 -1.044,-3.626 -0.534,-2.792 -0.07,-5.648 0.507,-8.395 2.222,-1.296 4.427,-2.826 7,-3.314 1.593,-0.353 2.893,1.079 3.344,2.449 0.069,2.471 1.226,4.828 0.881,7.323 -0.289,2.154 0.042,4.378 -0.584,6.486 -0.637,2.357 -1.992,4.689 -4.216,5.853 -1.359,0.753 -3.244,0.706 -4.345,-0.479 m -69.37,-2.765 c -1.58,-2.604 -1.428,-5.701 -1.584,-8.619 -0.483,-2.658 0.734,-5.184 0.84,-7.822 0.465,-1.364 1.755,-2.779 3.354,-2.426 2.567,0.492 4.768,2.018 6.986,3.309 0.657,3.398 1.434,7.212 -0.279,10.426 -0.584,1.213 -0.024,2.597 -0.239,3.875 -0.143,1.958 -0.952,4.302 -3.041,4.9 -2.61,0.573 -4.874,-1.525 -6.037,-3.643 m 93.187,3.725 c -3.118,-3.053 -5.488,-6.789 -8.695,-9.76 -0.84,-1.241 -1.332,-3.676 0.358,-4.456 2.053,-0.761 4.332,-0.253 6.418,-0.861 1.387,-0.947 1.52,-2.953 2.907,-3.913 1.31,-0.647 2.609,0.376 3.666,1.067 -0.146,4.382 1.631,8.521 2.04,12.839 -0.409,1.962 -0.57,4.249 -1.986,5.778 -1.464,0.745 -3.602,0.644 -4.708,-0.694 m -114.8,-0.05 c -0.739,-1.575 -1.125,-3.311 -1.378,-5.03 0.4,-4.318 2.191,-8.452 2.035,-12.839 1.052,-0.681 2.329,-1.696 3.643,-1.089 1.41,0.954 1.53,2.99 2.939,3.945 2.091,0.579 4.36,0.102 6.418,0.841 1.76,0.872 1.199,3.574 0.074,4.759 -3.446,3.134 -5.774,7.342 -9.404,10.276 -1.386,0.451 -3.532,0.689 -4.327,-0.863 m 137.364,3.202 c -4.161,-5.009 -7.073,-11.182 -12.439,-15.1 -0.197,-3.074 -0.344,-6.146 -0.808,-9.196 5.255,-0.824 10.437,2.007 13.417,6.244 1.383,1.579 1.916,3.78 3.602,5.1 2.227,1.889 3.992,4.252 6.211,6.149 0.414,0.431 1.048,0.761 1.143,1.411 0.57,2.622 -0.073,5.902 -2.608,7.27 -2.839,1.411 -6.312,0.125 -8.518,-1.878 m -164.195,1.079 c -1.719,-1.659 -1.99,-4.285 -1.535,-6.519 0.092,-0.619 0.73,-0.918 1.121,-1.355 2.302,-1.974 4.134,-4.432 6.468,-6.381 0.606,-0.485 1.056,-1.128 1.415,-1.819 1.649,-3.09 3.96,-5.931 7.028,-7.692 2.485,-1.493 5.467,-1.93 8.32,-1.609 -0.451,3.054 -0.593,6.136 -0.814,9.215 -4.914,3.578 -7.786,9.104 -11.42,13.836 -1.212,1.939 -3.357,3.058 -5.526,3.569 -1.755,0.413 -3.762,0.074 -5.057,-1.245 m 190.655,3.206 c -1.34,-1.154 -1.8,-3.042 -3.316,-4.015 -0.258,-0.639 -0.398,-1.34 -0.827,-1.896 -0.827,-0.35 -1.75,-0.22 -2.618,-0.272 -0.629,-1.561 -1.626,-2.935 -2.376,-4.438 -0.37,-0.89 0.69,-1.583 1.434,-1.795 2.674,-0.759 5.466,-1.066 8.241,-1.2 1.856,-0.155 3.73,1.072 4.405,2.793 0.455,1.167 0.005,2.633 0.919,3.611 0.937,1.24 2.347,2.094 3.1,3.478 -0.1,2.084 -1.314,4.276 -3.202,5.273 -2.003,0.994 -4.326,-0.051 -5.76,-1.539 m -213,1.667 c -2.104,-0.88 -3.339,-3.215 -3.523,-5.397 0.896,-1.558 2.568,-2.481 3.501,-4.021 0.422,-1.095 0.138,-2.373 0.707,-3.443 0.795,-1.517 2.522,-2.568 4.254,-2.422 2.499,0.098 4.989,0.423 7.428,0.97 0.923,0.23 2.071,0.561 2.347,1.611 -0.588,1.718 -1.851,3.121 -2.471,4.834 -0.753,0.037 -1.507,0.022 -2.247,0.147 -0.867,0.265 -0.863,1.336 -1.198,2.022 -1.521,0.994 -2.008,2.883 -3.354,4.05 -1.378,1.393 -3.5,2.417 -5.444,1.649 m 306.514,9.009 c -1.851,-0.513 -3.583,-1.437 -5.04,-2.678 -4.771,-3.926 -6.072,-11.336 -2.88,-16.637 3.133,-5.738 10.838,-8.284 16.763,-5.504 6.179,2.539 9.509,10.184 7.157,16.44 -2.082,6.409 -9.537,10.354 -16,8.379 M 58.932,126.225 c -4.685,-2.446 -7.557,-7.071 -11.315,-10.611 2.109,-0.736 4.332,-1.696 5.59,-3.653 1.228,-1.764 1.333,-3.974 1.475,-6.04 2.521,1.971 3.736,5.011 5.568,7.537 1.116,1.664 3.151,2.328 4.392,3.878 1.354,1.75 3.698,2.784 4.184,5.117 0.768,2.2 -0.547,4.928 -2.888,5.407 -2.426,0.127 -4.852,-0.548 -7.006,-1.635 m -150.159,-3.778 c 0.478,-2.327 2.826,-3.356 4.172,-5.102 1.235,-1.559 3.28,-2.214 4.4,-3.882 1.815,-2.525 3.069,-5.49 5.481,-7.553 0.321,1.952 0.276,4.061 1.391,5.778 1.222,2.115 3.551,3.175 5.765,3.92 -2.732,2.6 -4.979,5.668 -7.799,8.171 -2.854,2.588 -6.666,4.245 -10.548,4.077 -2.333,-0.493 -3.633,-3.21 -2.862,-5.409 m -122.844,5.687 c -7.138,-0.9 -12.513,-8.355 -11.029,-15.416 1.102,-7.207 8.893,-12.356 15.954,-10.529 6.684,1.374 11.42,8.502 10.051,15.197 -1.057,6.849 -8.14,11.948 -14.976,10.748 m 245.799,-4.082 c -3.252,-2.751 -5.71,-6.267 -8.366,-9.565 1.034,-1.042 2.432,-2.002 3.989,-1.586 1.23,0.089 2.792,1.127 3.756,-0.089 1.407,-2.073 1.034,-4.742 1.746,-7.017 2.968,-0.729 3.89,2.927 4.175,5.127 0.865,0.993 1.867,1.869 2.389,3.126 2.872,2.975 5.315,6.329 8.178,9.319 1.079,1.006 1.488,2.903 0.303,3.988 -1.213,1.059 -2.79,1.841 -4.392,2.015 -4.309,-0.647 -8.462,-2.478 -11.778,-5.318 m -102.421,2.811 c -0.947,-1.529 0.221,-3.178 1.346,-4.208 2.476,-2.595 4.557,-5.539 7.083,-8.093 0.805,-0.773 1.025,-1.982 1.939,-2.666 0.399,-0.403 0.997,-0.761 0.988,-1.417 0.216,-1.583 0.698,-3.276 1.934,-4.371 0.592,-0.403 1.777,-0.687 2.278,-0.097 0.459,2.253 0.294,4.765 1.594,6.762 0.906,1.259 2.499,0.246 3.712,0.148 1.566,-0.46 3.018,0.496 4.052,1.575 -1.985,2.454 -3.845,5.009 -6,7.309 -3.679,4.047 -8.755,6.789 -14.171,7.575 -1.765,-0.294 -3.647,-1.056 -4.755,-2.517 m 158.881,4.066 c -4.946,-1.526 -9.403,-4.359 -13.284,-7.741 -0.385,-0.382 -0.896,-0.712 -1.07,-1.253 0.762,-2.193 2.343,-4.001 3.996,-5.583 1.152,-1.03 2.572,-2.145 4.225,-1.916 1.628,0.386 1.811,2.29 2.698,3.428 1.478,1.804 3.541,3.619 6.055,3.347 1.468,-0.122 2.453,1.326 2.783,2.588 0.477,1.901 0.46,4.115 -0.726,5.76 -1.028,1.447 -3.042,1.912 -4.677,1.37 m -201.625,-0.02 c -1.805,-0.596 -2.779,-2.526 -2.82,-4.335 -0.083,-1.683 0.16,-3.617 1.469,-4.821 1.034,-1.001 2.596,-0.224 3.795,-0.807 2.246,-1.001 4.07,-2.898 4.966,-5.192 0.588,-1.438 2.462,-1.698 3.688,-0.922 2.393,1.336 4.213,3.538 5.587,5.875 0.225,0.532 0.835,1.318 0.179,1.786 -3.754,3.512 -8.168,6.373 -13.01,8.114 -1.222,0.459 -2.586,0.778 -3.854,0.302 M 57.269,141.99 c -3.895,-0.979 -7.971,-2.719 -10.24,-6.215 2.09,-1.589 4.622,-2.918 5.852,-5.346 0.607,-1.225 -0.27,-2.367 -1,-3.277 2.278,0.758 4.891,1.34 6.417,3.37 1.837,2.938 5.843,3.797 7.239,7.037 0.681,1.297 0.85,3.243 -0.569,4.11 -2.333,1.345 -5.197,0.843 -7.699,0.321 m -144.384,-0.166 c -1.351,-0.635 -1.65,-2.365 -1.08,-3.638 1.052,-3.602 5.297,-4.469 7.267,-7.387 1.507,-2.186 4.213,-2.885 6.607,-3.623 -0.699,0.922 -1.591,2.068 -0.951,3.265 1.23,2.409 3.725,3.757 5.829,5.302 -2.09,3.374 -5.954,5.063 -9.628,6.1 -2.601,0.619 -5.527,1.184 -8.044,-0.019 m 166.084,2.05 c -1.828,-0.928 -2.531,-2.959 -3.822,-4.41 -1.484,-1.507 -3.964,-0.452 -5.516,-1.832 -1.186,-1.013 -1.834,-2.483 -2.32,-3.93 1.538,-0.197 3.192,-0.367 4.45,-1.382 1.14,-0.832 1.554,-2.242 2.081,-3.486 3.423,2.507 6.419,5.555 9.804,8.121 1.663,1.292 3.615,3.376 2.65,5.647 -1.373,2.551 -5.071,2.664 -7.327,1.272 m -186.508,0.045 c -1.332,-0.8 -1.81,-2.613 -1.093,-3.987 0.96,-2.043 3.008,-3.207 4.64,-4.653 2.669,-2.05 4.979,-4.529 7.758,-6.445 0.514,1.258 0.942,2.668 2.09,3.504 1.259,1.002 2.899,1.167 4.438,1.37 -0.542,1.53 -1.231,3.122 -2.572,4.106 -1.489,1.075 -3.602,0.27 -5.044,1.443 -1.079,0.942 -1.572,2.364 -2.545,3.402 -1.861,2.091 -5.264,2.827 -7.672,1.26 m 250.287,-28.39 c -7.4,-9.144 -16.574,-16.596 -25.225,-24.483 -1.014,-2.673 -1.079,-5.811 -0.178,-8.53 0.344,-1.47 2.247,-2.22 3.358,-1.058 10.873,10.053 20.791,21.247 28.711,33.792 6.27,9.917 11.249,20.612 15.296,31.608 -7.383,-10.394 -14.028,-21.329 -21.962,-31.329 m -329.873,31.329 c 3.221,-8.69 6.992,-17.194 11.54,-25.277 8.108,-14.541 18.949,-27.401 31.035,-38.785 0.951,-0.86 1.879,-2.159 3.344,-1.903 1.902,0.943 1.966,3.405 2.062,5.246 -0.096,1.738 0.024,3.722 -1.028,5.188 -5.894,5.272 -11.939,10.395 -17.525,16.003 -5.2,5.127 -9.799,10.841 -13.905,16.873 -5.269,7.487 -10.249,15.179 -15.523,22.655 m 384.165,8.436 c -7.032,-1.577 -11.667,-9.543 -9.49,-16.434 1.763,-6.787 9.505,-11.183 16.233,-9.108 6.78,1.698 11.222,9.377 9.238,16.097 -1.603,6.808 -9.234,11.338 -15.981,9.445 m -422.09,0.384 c -6.986,-1.079 -12.131,-8.446 -10.661,-15.384 1.107,-7.191 8.92,-12.339 15.972,-10.487 6.996,1.424 11.774,9.197 9.83,16.083 -1.488,6.56 -8.539,11.13 -15.141,9.788 m 391.134,7.649 c -8.98,-12.738 -17.653,-25.882 -28.895,-36.785 -7.782,-7.581 -16.256,-14.383 -24.608,-21.312 -2.109,-1.649 -2.521,-4.616 -2.154,-7.11 0.22,-1.437 0.882,-3.138 2.407,-3.601 1.718,-0.339 3.087,1.029 4.235,2.104 15.297,14.671 30.112,30.269 40.884,48.66 3.233,5.746 6.312,11.677 8.131,18.044 m -354.618,0.014 c 2.889,-9.304 7.754,-17.87 13.128,-25.949 10.221,-15.04 22.845,-28.256 35.956,-40.787 1.056,-0.979 2.218,-2.16 3.77,-2.152 1.443,0.066 2.297,1.497 2.651,2.743 0.588,2.262 0.432,4.834 -0.826,6.845 -0.855,1.144 -2.077,1.925 -3.138,2.849 -7.939,6.577 -15.954,13.087 -23.291,20.339 -10.946,10.765 -19.389,23.673 -28.25,36.112 m 392.988,20.85 c -1.818,-0.385 -3.564,-1.142 -5.061,-2.241 -5.136,-3.555 -6.987,-10.951 -4.13,-16.51 2.825,-6.109 10.675,-9.119 16.854,-6.421 6.225,2.379 9.766,9.88 7.612,16.197 -1.847,6.316 -8.852,10.441 -15.275,8.975 m -437.377,0.038 c -1.874,-0.488 -3.634,-1.402 -5.113,-2.647 -4.718,-3.803 -6.137,-10.978 -3.22,-16.288 2.912,-5.804 10.409,-8.641 16.431,-6.174 6.45,2.311 10.148,10.109 7.773,16.56 -2.012,6.408 -9.394,10.419 -15.871,8.549 m 386.576,-20.001 c -12.72,-17.825 -29.215,-32.628 -47.062,-45.179 -2.486,-1.581 -3.648,-5.177 -2.163,-7.801 1.249,-2.136 4.381,-2.255 6.26,-0.912 10.161,6.752 19.497,14.726 27.911,23.556 9.155,9.632 17.264,20.316 23.634,31.999 5.56,10.363 9.955,21.586 11.191,33.344 -5.393,-12.292 -11.924,-24.107 -19.771,-35.007 m -348.394,28.058 c 1.838,-8.494 5.039,-16.651 9.023,-24.361 6.467,-12.383 14.911,-23.675 24.502,-33.809 8.466,-8.917 17.87,-16.963 28.113,-23.771 1.879,-1.343 5.026,-1.241 6.276,0.903 1.474,2.633 0.317,6.22 -2.164,7.801 -15.628,11.01 -30.236,23.68 -42.152,38.691 -10.014,12.629 -18.26,26.653 -24.603,41.464 0.009,-2.343 0.551,-4.635 1.005,-6.918 m 402.756,21.433 c -1.985,-0.312 -3.886,-1.091 -5.526,-2.25 -5.076,-3.446 -7.052,-10.62 -4.442,-16.178 2.402,-5.624 9.013,-8.973 14.971,-7.504 6.624,1.352 11.382,8.349 10.128,15.014 -0.959,6.978 -8.195,12.228 -15.131,10.918 M -236.093,213.6 c -4.919,-1.337 -8.833,-5.759 -9.495,-10.827 -0.749,-4.776 1.411,-9.844 5.365,-12.623 4.236,-3.116 10.364,-3.308 14.774,-0.436 5.434,3.294 7.703,10.754 5.007,16.513 -2.462,5.88 -9.536,9.225 -15.651,7.373 m 409.389,5.829 c -4.264,-10.757 -9.588,-21.098 -15.969,-30.758 -14.28,-21.72 -33.518,-39.92 -55.091,-54.298 -1.318,-0.913 -2.907,-1.694 -3.574,-3.257 -1.166,-2.296 -0.804,-5.637 1.552,-7.046 1.939,-1.134 4.319,-0.428 6.022,0.808 11.077,6.785 20.99,15.334 29.934,24.719 9.72,10.299 18.342,21.691 25.159,34.122 6.004,11.071 10.769,23.083 11.967,35.71 m -369.019,-0.012 c 1.084,-10.901 4.786,-21.385 9.623,-31.154 7.052,-14.11 16.501,-26.933 27.287,-38.405 9.238,-9.735 19.509,-18.587 31.039,-25.5 1.759,-1.148 4.364,-1.244 5.926,0.299 2.362,2.413 1.677,6.923 -1.19,8.645 -19.537,12.823 -37.236,28.671 -51.178,47.485 -8.847,11.848 -16.013,24.906 -21.507,38.63 m 401.5,23.601 c -6.802,-1.616 -11.345,-9.228 -9.458,-15.985 1.558,-6.945 9.363,-11.595 16.211,-9.556 7.011,1.659 11.535,9.702 9.257,16.557 -1.819,6.637 -9.382,10.909 -16.01,8.984 m -439.619,0.432 c -4.556,-0.777 -8.549,-4.148 -10.096,-8.503 -1.806,-4.782 -0.455,-10.519 3.261,-14.025 3.817,-3.775 10.028,-4.794 14.842,-2.401 5.825,2.632 8.981,9.829 6.914,15.893 -1.819,6.179 -8.591,10.304 -14.921,9.036 m 85.287,5.283 c 0,-14.213 -0.047,-28.426 0.018,-42.638 16.087,0.022 32.178,-0.011 48.27,0.013 0.014,14.208 0.009,28.412 0,42.616 -16.096,0.027 -32.192,0.009 -48.288,0.009 m 313.729,6.27 c 0.574,-2.076 1.42,-4.074 1.86,-6.197 2.228,-9.738 0.84,-19.977 -2.36,-29.334 -4.231,-12.243 -11.495,-23.236 -20.015,-32.909 -9.386,-10.602 -20.358,-19.722 -32.051,-27.674 -6.119,-4.376 -13.285,-6.996 -19.471,-11.267 -1.981,-1.451 -4.089,-3.316 -4.319,-5.927 -0.05,-1.539 0.174,-3.531 1.769,-4.254 2.025,-0.785 4.24,-0.068 6.211,0.575 5.489,2.053 10.44,5.293 15.209,8.651 10.841,7.83 20.657,17.027 29.556,26.99 9.674,10.971 18.355,23.002 24.25,36.448 3.12,7.285 5.374,15.066 5.572,23.038 0.183,7.666 -1.699,15.576 -6.211,21.86 m -358.95,-22.293 c 0.359,-9.835 3.712,-19.297 8.108,-28.012 4.415,-8.69 9.95,-16.777 16.05,-24.365 9.987,-12.278 21.389,-23.455 34.118,-32.876 5.388,-3.851 10.974,-7.653 17.304,-9.771 1.994,-0.56 4.69,-1.237 6.234,0.578 1.051,1.797 1.015,4.208 -0.134,5.954 -1.125,1.75 -2.829,3.022 -4.543,4.157 -4.956,3.134 -10.326,5.54 -15.37,8.512 -18.54,12.216 -35.781,27.259 -47.412,46.383 -6.329,10.55 -10.886,22.513 -11.102,34.934 -0.143,5.724 0.964,11.415 2.972,16.762 -4.672,-6.343 -6.454,-14.474 -6.225,-22.256 m 334.439,21.292 c -1.571,-2.454 -1.963,-5.467 -1.659,-8.324 2.963,1.733 5.664,4.254 9.214,4.672 3.713,0.45 6.979,-2.274 8.743,-5.296 2.375,-7.466 1.644,-15.748 -1.475,-22.89 -4.653,-10.622 -13.216,-18.931 -22.215,-25.95 -5.912,-0.442 -11.824,0.881 -17.75,0.766 -1.718,-3.155 -2.766,-6.666 -4.561,-9.766 -9.432,-7.933 -20.952,-12.922 -32.689,-16.381 -9.234,-2.829 -18.738,-4.864 -27.604,-8.782 C 36.877,156.279 24.897,146.862 14.786,135.964 10.064,130.409 6.688,123.812 4.281,116.963 1.322,108.306 -0.047,98.921 1.557,89.842 c 1.331,-7.737 5.15,-15.14 11.112,-20.313 2.747,2.068 5.389,4.283 8.149,6.334 -4.672,7.874 -7.451,17.191 -6.22,26.387 1.043,8.319 5.287,15.949 10.896,22.066 9.467,10.268 22.082,17.08 35.069,21.845 7.381,2.044 14.961,3.289 22.389,5.169 6.882,1.69 13.532,4.344 19.606,8.015 1.856,1.037 3.537,2.38 5.479,3.257 4.402,1.957 8.44,4.629 12.321,7.455 6.38,4.704 12.302,10.006 17.806,15.712 8.439,8.786 16.04,18.52 21.512,29.448 3.913,7.948 6.72,16.813 5.792,25.766 -0.294,3.345 -1.58,6.464 -2.544,9.643 -1.254,3.835 -4.199,7.234 -8.123,8.438 -5.13,1.695 -11.304,-0.418 -14.138,-5.062 m -320.713,3.707 c -3.082,-1.975 -4.943,-5.361 -5.825,-8.843 -1.244,-3.422 -2.182,-7 -2.168,-10.671 -0.161,-9.987 3.794,-19.504 8.677,-28.03 7.585,-12.909 17.695,-24.205 28.954,-34.008 6.308,-5.346 12.982,-10.445 20.571,-13.844 0.703,-0.344 1.379,-0.764 2.035,-1.195 5.916,-3.882 12.375,-6.955 19.183,-8.904 8.439,-2.425 17.162,-3.695 25.614,-6.039 13.589,-4.986 26.827,-12.21 36.383,-23.304 5.076,-5.958 8.814,-13.249 9.683,-21.1 1.075,-9.04 -1.672,-18.167 -6.284,-25.893 2.774,-2.066 5.407,-4.309 8.204,-6.349 5.636,4.998 9.417,11.945 10.878,19.312 1.961,9.743 0.427,19.909 -2.913,29.179 -2.462,6.67 -5.857,13.084 -10.569,18.444 -7.516,7.891 -15.857,15.112 -25.344,20.544 -7.975,4.619 -16.648,7.924 -25.518,10.357 -9.568,2.633 -19.22,5.222 -28.251,9.426 -5.765,2.67 -11.204,6.042 -16.174,10.001 -0.437,0.344 -0.781,0.79 -0.992,1.296 -1.296,2.865 -2.472,5.787 -3.841,8.617 l -0.271,0.184 c -5.893,0.331 -11.801,-1.203 -17.668,-0.658 -3.692,2.803 -7.17,5.904 -10.445,9.189 -5.517,5.658 -10.395,12.2 -12.908,19.77 -2.128,6.367 -2.361,13.428 -0.331,19.845 1.755,3.041 5.039,5.765 8.764,5.319 3.543,-0.427 6.23,-2.954 9.197,-4.676 0.598,4.263 -0.969,8.885 -4.525,11.452 -3.991,3.051 -9.903,3.395 -14.116,0.579 m 280.412,4.268 c -0.124,-3.694 0.051,-7.392 -0.091,-11.085 4.4,-0.23 8.829,-0.079 13.238,-0.064 0.137,-11.172 0.115,-22.358 0.013,-33.53 -8.315,0.097 -16.633,0.015 -24.947,0.047 -0.047,-3.758 -0.005,-7.517 -0.023,-11.274 12.535,-0.013 25.076,-0.019 37.612,0 -0.018,18.632 0.055,37.269 -0.036,55.901 -8.585,-0.009 -17.176,-0.023 -25.766,0.005 m -72.175,0.05 c -0.057,-4.176 0.064,-8.351 -0.065,-12.527 4.161,-0.28 8.342,-0.032 12.519,-0.124 0.021,4.222 0,8.439 0.007,12.66 -4.152,-0.009 -8.31,0.005 -12.461,-0.009 m -22.556,0.009 c -0.045,-4.199 0.032,-8.397 -0.041,-12.591 4.161,-0.147 8.328,-0.023 12.494,-0.065 0.014,4.213 -0.004,8.43 0.01,12.643 -4.156,0.022 -8.311,0.004 -12.463,0.013 m 196.031,10.332 c -3.776,-0.736 -7.176,-3.202 -8.999,-6.593 -2.214,-3.918 -2.173,-8.971 0.069,-12.866 2.995,-5.531 10.206,-8.196 16.073,-5.894 6.289,2.168 10.101,9.555 8.153,15.936 -1.653,6.49 -8.75,10.868 -15.296,9.417 m -431.783,-0.033 c -3.891,-1.07 -7.221,-4.005 -8.71,-7.763 -1.396,-3.39 -1.286,-7.368 0.327,-10.666 1.754,-3.717 5.328,-6.501 9.37,-7.263 5.03,-1.066 10.53,1.203 13.41,5.443 3.022,4.264 3.123,10.35 0.22,14.696 -2.986,4.773 -9.214,7.147 -14.617,5.553 m 279.975,7.364 c 0,-3.234 -0.054,-6.468 0.033,-9.701 4.134,0.018 8.273,0.008 12.407,0.008 0.087,3.229 0.037,6.459 0.033,9.688 -4.158,0.009 -8.316,0.009 -12.473,0.005 m -35.031,-0.005 c 0.019,-3.238 -0.069,-6.481 0.05,-9.72 4.135,0.073 8.274,0.009 12.408,0.037 0.023,3.216 -0.006,6.436 0.023,9.652 -4.162,0.082 -8.319,0.022 -12.481,0.031 m -56.58,9.886 c -0.028,-1.58 -0.036,-3.161 -0.009,-4.746 5.934,-0.004 11.865,-0.009 17.8,0.005 0.014,1.58 0.009,3.156 -0.009,4.737 -5.931,0.008 -11.857,-0.006 -17.782,0.004 m 115.105,8.811 c -0.098,-13.175 0.03,-26.349 -0.029,-39.524 0.07,-11.581 -0.073,-23.161 0.07,-34.738 4.101,0.051 8.209,0.065 12.314,-0.008 0.041,0.569 0.073,1.134 0.097,1.699 -0.013,24.181 0.005,48.362 -0.009,72.543 -4.149,0.064 -8.297,0.023 -12.443,0.028 m -163.831,-0.074 c 0.01,-30.732 0.019,-61.463 -0.004,-92.195 51.224,-0.046 102.448,0.042 153.672,0.024 0.083,18.609 0.05,37.217 0.014,55.821 -4.158,0.023 -8.309,-0.059 -12.463,0.047 -0.289,-15.04 0.116,-30.103 -0.202,-45.138 -3.187,0.133 -6.381,0.023 -9.573,0.064 -0.019,8.572 -0.009,17.143 -0.005,25.715 -4.188,0.028 -8.374,0.005 -12.563,0.014 -0.019,-8.576 0.004,-17.152 -0.009,-25.729 -3.4,-0.005 -6.799,-0.009 -10.198,0.005 -0.015,8.576 0.028,17.153 -0.019,25.728 -4.152,0.015 -8.306,-0.064 -12.453,0.047 -0.189,-8.558 -0.102,-17.13 -0.046,-25.693 -3.904,-0.188 -7.819,-0.077 -11.723,-0.055 -0.032,8.577 0.11,17.162 -0.073,25.734 -4.126,-0.087 -8.256,-0.018 -12.381,-0.037 -0.023,-8.576 0.005,-17.152 -0.013,-25.729 -8.577,0 -17.148,-0.019 -25.725,0.01 0,16.752 -0.004,33.51 0.004,50.263 12.724,0.014 25.45,0 38.174,0.005 0.047,4.157 0.014,8.31 0.018,12.463 -16.923,0.036 -33.846,0.069 -50.774,0.087 -0.013,-10.147 0,-20.3 -0.004,-30.452 -7.019,-0.013 -14.043,-0.004 -21.067,0 -0.018,16.336 -0.009,32.675 -0.004,49.015 -4.194,0.013 -8.388,0.032 -12.583,-0.014 m 282.484,2.091 c -6.936,-1.709 -11.406,-9.652 -9.188,-16.46 1.816,-6.826 9.679,-11.144 16.414,-8.953 6.854,1.838 11.168,9.794 8.889,16.532 -1.861,6.657 -9.491,10.883 -16.115,8.881 m -412.021,0.472 c -6.371,-0.95 -11.378,-7.083 -11.001,-13.519 0.11,-6.5 5.65,-12.288 12.136,-12.678 4.869,-0.446 9.859,2.099 12.352,6.302 2.229,3.602 2.532,8.287 0.823,12.155 -2.279,5.448 -8.498,8.82 -14.31,7.74 m 400.574,26.598 c -2.371,-0.459 -4.608,-1.581 -6.39,-3.203 -4.797,-4.184 -5.733,-11.947 -2.066,-17.147 3.467,-5.402 11.116,-7.433 16.812,-4.465 5.691,2.687 8.737,9.743 6.771,15.733 -1.81,6.285 -8.724,10.455 -15.127,9.082 m -389.08,0.027 c -6.652,-1.484 -11.278,-8.687 -9.798,-15.352 1.176,-7.01 8.709,-12.053 15.641,-10.409 7.042,1.259 12.003,8.948 10.193,15.889 -1.409,6.992 -9.145,11.787 -16.036,9.872 m 372.529,24.774 c -1.875,-0.455 -3.64,-1.346 -5.136,-2.554 -5.057,-3.895 -6.459,-11.65 -3.046,-17.057 3.252,-5.737 11.108,-8.135 17.001,-5.154 6.041,2.711 9.142,10.318 6.735,16.483 -2.131,6.165 -9.243,9.973 -15.554,8.282 m -356.939,0.065 c -6.702,-1.672 -11.157,-9.174 -9.329,-15.858 1.493,-6.95 9.224,-11.617 16.074,-9.684 6.909,1.562 11.52,9.312 9.536,16.129 -1.608,6.932 -9.454,11.498 -16.281,9.413 M 145.1,374.917 c -1.7,-0.391 -3.317,-1.116 -4.722,-2.132 -5.168,-3.555 -7.033,-10.983 -4.167,-16.56 2.702,-5.792 9.941,-8.866 15.985,-6.73 6.345,1.934 10.396,9.119 8.74,15.554 -1.435,6.895 -9.011,11.636 -15.836,9.868 m -317.346,0.349 c -6.978,-0.854 -12.347,-7.979 -11.166,-14.93 0.789,-6.748 7.455,-12.063 14.217,-11.309 7.308,0.427 13.197,7.804 11.939,15.031 -0.823,7.023 -8.007,12.411 -14.99,11.208 m 242.198,12.876 c 0.008,-4.079 -0.056,-8.159 0.019,-12.238 l 0.182,-0.183 c 4.383,-0.101 8.765,-0.01 13.153,-0.037 0.037,4.129 -0.06,8.259 0.049,12.389 -4.464,0.165 -8.937,0.036 -13.403,0.069 m -20.19,-0.004 c 0.014,-4.075 -0.055,-8.155 0.027,-12.229 l 0.18,-0.188 c 4.373,-0.106 8.76,0 13.138,-0.041 0.046,4.133 -0.05,8.273 0.05,12.407 -4.46,0.133 -8.929,0.037 -13.395,0.051 m 73.264,6.596 c -4.395,-1.02 -8.098,-4.484 -9.458,-8.778 -1.969,-5.77 0.708,-12.647 6.069,-15.55 5.389,-3.188 12.904,-1.769 16.762,3.16 3.395,4.08 3.917,10.249 1.24,14.838 -2.76,5.048 -9.035,7.781 -14.613,6.33 m -273.681,0.308 c -7.024,-1.053 -12.224,-8.457 -10.721,-15.426 1.106,-7.042 8.631,-12.145 15.595,-10.543 6.996,1.228 11.98,8.766 10.313,15.688 -1.259,6.771 -8.426,11.622 -15.187,10.281 m 132.426,4.772 c -0.009,-4.152 -0.009,-8.305 0.005,-12.453 4.447,-0.014 8.898,-0.023 13.349,0.005 0.014,4.148 0,8.3 0.006,12.448 -4.451,0.014 -8.908,0.023 -13.36,0 m -44.37,-0.037 c -0.018,-11.047 3.666,-22.058 10.35,-30.86 8.094,-10.845 20.621,-18.209 34.029,-20.056 0,-5.351 -0.05,-10.703 0.024,-16.059 -12.771,-0.193 -25.555,-0.018 -38.335,-0.083 0.005,-11.461 0.01,-22.918 0,-34.375 -4.184,-0.013 -8.369,0.01 -12.55,-0.009 -0.041,-1.828 -0.041,-3.661 0.01,-5.493 7.91,0.022 15.824,-0.07 23.74,0.045 -0.032,9.224 -0.014,18.444 -0.009,27.664 9.049,-0.033 18.104,0.101 27.153,-0.07 -0.128,-6.21 0.051,-12.43 -0.092,-18.641 4.461,-0.206 8.931,-0.014 13.395,-0.091 0.032,6.265 0.004,12.536 0.015,18.802 7.449,0.018 14.905,0.004 22.357,0.004 0.082,-6.215 -0.116,-12.439 0.095,-18.655 10.92,0.097 21.834,0.014 32.754,0.041 0.046,6.202 -0.036,12.409 0.017,18.61 9.464,0.023 18.926,0 28.395,0.009 0.009,14.447 0.009,28.894 0,43.341 -4.498,-0.037 -8.995,0.078 -13.487,-0.06 0.022,-10.386 0.152,-20.786 -0.065,-31.168 -4.947,0.115 -9.895,0.019 -14.843,0.051 0.004,6.762 -0.032,13.519 0,20.281 -10.963,-0.014 -21.924,0.064 -32.889,-0.041 0.063,-6.744 0.036,-13.492 0.017,-20.235 -7.45,-0.005 -14.902,-0.015 -22.351,0 0.031,5.365 -0.069,10.73 0.055,16.092 9.545,1.138 18.718,5.107 26.141,11.208 11.829,9.578 18.973,24.604 18.881,39.831 -4.415,0.014 -8.824,0.005 -13.24,0.005 0.011,-9.348 -3.468,-18.664 -9.757,-25.6 -5.705,-6.404 -13.629,-10.745 -22.08,-12.174 0,6.009 0,12.018 0.004,18.026 -4.455,0.018 -8.907,0.008 -13.359,0 -0.009,-5.958 0,-11.916 -0.009,-17.874 -9.808,1.778 -18.766,7.649 -24.392,15.866 -4.41,6.317 -6.693,13.997 -6.753,21.683 -4.411,-0.024 -8.815,-0.005 -13.221,-0.015 m 161.812,11.839 c -7.087,-1.204 -12.118,-8.898 -10.325,-15.876 1.372,-6.89 8.901,-11.7 15.742,-9.977 6.996,1.35 11.837,9.044 9.99,15.944 -1.432,6.721 -8.685,11.42 -15.407,9.909 m -226.44,-0.047 c -5.012,-1.212 -9.064,-5.599 -9.812,-10.712 -1.061,-5.815 2.393,-12.007 7.841,-14.25 5.246,-2.337 11.879,-0.707 15.435,3.8 3.477,4.148 3.955,10.478 1.121,15.094 -2.835,4.938 -9.082,7.548 -14.585,6.068 m 200.188,13.428 c -1.848,-0.345 -3.62,-1.08 -5.153,-2.164 -5.257,-3.528 -7.209,-11.043 -4.274,-16.666 2.735,-5.852 10.115,-8.902 16.175,-6.633 6.444,2.068 10.4,9.588 8.383,16.064 -1.662,6.408 -8.641,10.773 -15.131,9.399 m -173.21,0.037 c -4.335,-0.859 -8.116,-4.048 -9.674,-8.186 -2.306,-5.655 0,-12.683 5.2,-15.88 4.897,-3.258 11.893,-2.614 16.138,1.451 4.162,3.795 5.42,10.34 2.898,15.389 -2.462,5.352 -8.801,8.512 -14.562,7.226 m 144.371,9.486 c -1.654,-0.437 -3.221,-1.19 -4.589,-2.21 -5.211,-3.735 -6.873,-11.442 -3.639,-16.983 3.055,-5.784 10.712,-8.461 16.689,-5.76 6.261,2.476 9.707,10.161 7.345,16.477 -2.039,6.363 -9.366,10.313 -15.806,8.476 m -117.171,0.032 c -1.962,-0.514 -3.794,-1.493 -5.31,-2.834 -4.912,-4.131 -5.958,-11.958 -2.302,-17.231 3.436,-5.407 11.038,-7.516 16.753,-4.593 6.009,2.746 9.091,10.367 6.629,16.513 -2.173,6.216 -9.436,9.991 -15.77,8.145 m 88.648,5.99 c -7.303,-1.419 -12.173,-9.711 -9.771,-16.776 1.94,-6.913 10.089,-11.14 16.846,-8.641 6.514,2.026 10.529,9.592 8.503,16.119 -1.709,6.555 -8.981,10.938 -15.578,9.298 m -58.844,0.087 c -3.887,-0.757 -7.359,-3.367 -9.156,-6.9 -2.177,-4.115 -1.911,-9.384 0.667,-13.266 3.238,-5.154 10.252,-7.433 15.889,-5.095 5.981,2.214 9.633,9.142 8.039,15.33 -1.424,6.734 -8.71,11.457 -15.439,9.931 m 28.576,1.723 c -4.892,-1.351 -8.768,-5.742 -9.449,-10.781 -0.753,-4.759 1.369,-9.813 5.292,-12.61 4.222,-3.156 10.369,-3.372 14.797,-0.515 5.383,3.243 7.72,10.566 5.154,16.317 -2.398,6.022 -9.582,9.491 -15.794,7.589 m -11.584,-7.46 c 1.759,5.066 6.15,9.15 11.401,10.354 2.434,0.206 4.906,0.16 7.345,0.032 3.85,-0.772 7.314,-3.17 9.573,-6.362 0.872,-1.167 1.387,-2.541 2.155,-3.771 1.851,3.385 4.869,6.146 8.493,7.505 4.931,1.939 10.797,1.181 15.077,-1.924 3.22,-2.279 5.513,-5.779 6.376,-9.619 2.043,2.164 4.194,4.363 7.051,5.439 6.555,2.898 14.851,0.643 19.064,-5.145 1.869,-2.449 2.935,-5.444 3.211,-8.503 3.536,3.725 8.816,5.779 13.942,5.053 5.733,-0.689 10.895,-4.727 12.926,-10.139 0.865,-2.159 1.158,-4.501 1.075,-6.817 3.886,3.197 9.271,4.53 14.172,3.262 5.403,-1.282 9.94,-5.568 11.521,-10.887 0.799,-2.495 0.827,-5.163 0.465,-7.736 4,2.223 8.851,3.046 13.265,1.626 6.271,-1.832 11.029,-7.846 11.315,-14.383 0.161,-2.094 -0.221,-4.175 -0.763,-6.187 4.924,2.227 10.947,1.814 15.452,-1.199 4.981,-3.183 7.873,-9.284 7.182,-15.164 -0.18,-1.902 -0.805,-3.73 -1.566,-5.475 3.586,1.005 7.518,0.886 10.954,-0.616 5.155,-2.132 8.963,-7.148 9.647,-12.683 0.561,-3.886 -0.492,-7.879 -2.601,-11.158 6.713,1.126 13.887,-2.467 16.883,-8.595 3.05,-5.746 1.993,-13.188 -2.292,-18.03 4.859,0.069 9.725,-2.082 12.803,-5.871 3.958,-4.681 4.809,-11.691 2.099,-17.189 -0.947,-2.022 -2.394,-3.758 -4.001,-5.283 4.938,-0.602 9.568,-3.496 12.081,-7.814 3.253,-5.356 2.935,-12.6 -0.809,-17.63 -1.147,-1.631 -2.659,-2.954 -4.276,-4.103 4.548,-1.171 8.567,-4.322 10.607,-8.58 2.706,-5.412 1.981,-12.335 -1.847,-17.034 -1.506,-1.957 -3.534,-3.446 -5.701,-4.594 4.79,-1.994 8.687,-6.287 9.717,-11.433 0.145,-2.293 0.1,-4.608 0.027,-6.905 -0.994,-5.549 -5.356,-10.156 -10.635,-11.961 3.092,-2.183 5.888,-4.998 7.116,-8.669 2.452,-6.49 0.046,-14.369 -5.602,-18.393 -1.988,-1.489 -4.339,-2.439 -6.769,-2.908 3.656,-2.843 6.15,-7.193 6.414,-11.85 0.485,-6.23 -3.065,-12.542 -8.655,-15.338 -2.068,-1.127 -4.402,-1.624 -6.722,-1.84 3.479,-3.563 5.356,-8.696 4.617,-13.665 -0.718,-5.66 -4.713,-10.741 -10.041,-12.775 -2.344,-0.953 -4.897,-1.226 -7.401,-1.088 2.991,-3.955 4.162,-9.275 2.806,-14.08 -1.423,-5.404 -5.851,-9.886 -11.263,-11.31 -2.577,-0.736 -5.311,-0.68 -7.924,-0.193 2.673,-4.589 2.912,-10.502 0.515,-15.251 -2.537,-5.234 -8.103,-8.811 -13.92,-8.921 -2.059,-0.11 -4.074,0.354 -6.031,0.92 1.309,-4.094 1.52,-8.657 -0.332,-12.624 -2.691,-6.304 -9.728,-10.345 -16.533,-9.45 -2.033,0.204 -3.958,0.936 -5.815,1.75 1.237,-4.879 0.144,-10.304 -3.063,-14.203 -3.712,-4.696 -10.17,-6.952 -16,-5.591 -2.15,0.455 -4.152,1.428 -5.953,2.673 0.523,-5.039 -1.25,-10.313 -5.007,-13.763 -4.425,-4.239 -11.355,-5.557 -17.01,-3.184 -1.912,0.741 -3.593,1.93 -5.131,3.257 -0.075,-4.84 -2.358,-9.613 -6.216,-12.566 -4.773,-3.799 -11.751,-4.484 -17.157,-1.651 -2.058,0.998 -3.749,2.565 -5.311,4.2 -0.786,-4.928 -3.868,-9.464 -8.301,-11.817 -5.515,-3.053 -12.802,-2.419 -17.675,1.595 -1.517,1.159 -2.656,2.697 -3.818,4.18 -1.057,-3.5 -3.253,-6.664 -6.275,-8.746 -5.678,-4.042 -14.062,-3.749 -19.395,0.769 -1.975,1.563 -3.422,3.675 -4.543,5.905 -1.649,-3.017 -3.863,-5.819 -6.936,-7.476 -3.395,-2.027 -7.525,-2.343 -11.351,-1.701 -5.705,1.185 -10.395,5.733 -12.045,11.282 -1.81,-2.622 -4.162,-4.93 -7.106,-6.228 -5.467,-2.583 -12.352,-1.681 -16.96,2.228 -3.073,2.498 -5.021,6.177 -5.705,10.05 -3.29,-3.813 -8.256,-6.221 -13.341,-5.904 -6.123,0.239 -11.879,4.301 -14.111,10.011 -0.814,1.88 -1.089,3.919 -1.245,5.938 -3.597,-3.357 -8.723,-5.028 -13.598,-4.212 -6.068,0.892 -11.369,5.582 -12.959,11.508 -0.624,2.084 -0.693,4.281 -0.505,6.426 -3.022,-2.095 -6.711,-3.261 -10.404,-3.016 -5.641,0.269 -10.956,3.793 -13.446,8.852 -1.782,3.472 -2.067,7.559 -1.208,11.33 -3.803,-1.933 -8.347,-2.453 -12.431,-1.135 -5.135,1.568 -9.316,5.89 -10.684,11.081 -1.006,3.431 -0.607,7.116 0.583,10.443 -5.072,-1.856 -11.038,-1.053 -15.334,2.259 -4.671,3.468 -7.162,9.601 -6.178,15.338 0.271,1.98 1.052,3.831 1.943,5.601 -3.822,-0.786 -7.924,-0.305 -11.346,1.615 -4.59,2.478 -7.778,7.314 -8.26,12.499 -0.432,4.057 0.823,8.206 3.284,11.44 -4.552,-0.245 -9.242,1.216 -12.549,4.423 -4.819,4.448 -6.386,11.972 -3.73,17.971 0.803,1.958 2.086,3.66 3.509,5.209 -4.814,0.253 -9.491,2.678 -12.32,6.606 -3.817,5.103 -4.13,12.509 -0.716,17.902 0.959,1.778 2.581,3.017 3.848,4.542 -3.022,0.643 -5.897,2.055 -8.121,4.217 -3.519,3.321 -5.365,8.305 -4.882,13.116 0.367,4.098 2.406,8.006 5.525,10.679 0.822,0.663 1.718,1.228 2.481,1.953 -4.653,1.571 -8.517,5.301 -10.125,9.955 -0.822,2.011 -0.473,4.221 -0.551,6.329 -0.335,4.14 1.911,8.058 4.833,10.82 1.41,1.413 3.234,2.25 4.92,3.264 -3.877,1.856 -6.946,5.315 -8.283,9.404 -1.58,4.64 -0.849,9.982 1.907,14.033 2.186,3.35 5.7,5.609 9.495,6.735 -4.249,2.761 -7.079,7.612 -7.272,12.688 -0.354,5.834 2.807,11.695 7.864,14.612 1.953,1.19 4.176,1.833 6.417,2.201 -3.504,3.197 -5.714,7.855 -5.526,12.641 0.079,6.413 4.429,12.486 10.469,14.641 1.92,0.762 3.988,0.974 6.036,1.052 -3.238,3.697 -4.736,8.87 -3.771,13.712 1.057,5.88 5.673,10.924 11.447,12.471 2.251,0.671 4.626,0.699 6.942,0.432 -3.046,4.516 -3.62,10.571 -1.369,15.545 2.283,5.246 7.552,9.036 13.262,9.481 2.025,0.193 4.065,-0.059 6.031,-0.569 -1.484,3.477 -2.063,7.4 -1.084,11.094 1.268,5.126 5.232,9.476 10.221,11.208 3.886,1.41 8.241,1.112 12.026,-0.469 -1.516,4.805 -0.822,10.295 2.141,14.411 3.358,4.828 9.504,7.548 15.333,6.652 2.261,-0.276 4.401,-1.149 6.372,-2.27 -0.501,3.211 -0.239,6.579 1.112,9.56 1.878,4.346 5.792,7.745 10.363,8.994 5.012,1.475 10.634,0.202 14.654,-3.1 -0.211,5.02 1.892,10.114 5.806,13.312 4.599,3.914 11.452,4.846 16.924,2.293 1.993,-0.878 3.734,-2.228 5.255,-3.777 0.386,4.86 3.031,9.49 7.11,12.192 5.113,3.505 12.256,3.614 17.475,0.261 1.883,-1.088 3.298,-2.76 4.754,-4.34 0.837,3.932 3.207,7.506 6.518,9.793 4.144,2.931 9.716,3.689 14.498,1.985 3.923,-1.346 7.162,-4.309 9.101,-7.947" />
          </g>
          <g
             transform="translate(241.5723,466.2842)"
             id="g3449"
             style="fill:#000000">
            <path
               inkscape:connector-curvature="0"
               id="path3451"
               style="fill:#000000;fill-opacity:1;fill-rule:nonzero;stroke:none"
               d="M 0,0 C -0.349,2.191 -0.174,4.645 1.103,6.523 1.19,2.926 1.994,-0.928 4.717,-3.496 7.735,-6.55 12.251,-7.189 16.353,-7.028 10.414,-10.772 1.383,-6.891 0,0" />
          </g>
          <g
             transform="translate(270.8984,464.2676)"
             id="g3453"
             style="fill:#000000">
            <path
               inkscape:connector-curvature="0"
               id="path3455"
               style="fill:#000000;fill-opacity:1;fill-rule:nonzero;stroke:none"
               d="M 0,0 C -0.727,2.904 0.143,6.009 1.906,8.365 1.313,4.713 1.539,0.685 3.845,-2.366 6.422,-5.926 10.934,-7.332 15.141,-7.612 9.183,-10.271 1.497,-6.293 0,0" />
          </g>
          <g
             transform="translate(212.5313,460.7676)"
             id="g3457"
             style="fill:#000000">
            <path
               inkscape:connector-curvature="0"
               id="path3459"
               style="fill:#000000;fill-opacity:1;fill-rule:nonzero;stroke:none"
               d="M 0,0 C -1.746,2.604 -1.925,6.036 -0.855,8.935 -0.344,5.135 1.144,1.167 4.46,-1.039 7.947,-3.491 12.467,-3.404 16.482,-2.596 11.594,-6.638 3.455,-5.256 0,0" />
          </g>
          <g
             transform="translate(300.4678,457.3677)"
             id="g3461"
             style="fill:#000000">
            <path
               inkscape:connector-curvature="0"
               id="path3463"
               style="fill:#000000;fill-opacity:1;fill-rule:nonzero;stroke:none"
               d="M 0,0 C -1.278,3.478 -0.161,7.589 2.537,10.083 1.396,6.275 1.125,1.824 3.532,-1.571 5.742,-4.975 9.697,-6.486 13.442,-7.515 7.893,-8.866 1.792,-5.379 0,0" />
          </g>
          <g
             transform="translate(181.896,462.9126)"
             id="g3465"
             style="fill:#000000">
            <path
               inkscape:connector-curvature="0"
               id="path3467"
               style="fill:#000000;fill-opacity:1;fill-rule:nonzero;stroke:none"
               d="M 0,0 C 1.116,-3.312 2.701,-6.753 5.838,-8.604 9.697,-11.057 14.58,-10.455 18.664,-8.935 14.185,-14.199 4.621,-13.225 1.13,-7.299 -0.198,-5.122 -0.381,-2.467 0,0" />
          </g>
          <g
             transform="translate(328.4795,446.228)"
             id="g3469"
             style="fill:#000000">
            <path
               inkscape:connector-curvature="0"
               id="path3471"
               style="fill:#000000;fill-opacity:1;fill-rule:nonzero;stroke:none"
               d="M 0,0 C -1.984,3.17 -1.663,7.396 0.405,10.441 -0.031,6.161 0.928,1.336 4.503,-1.433 7.305,-3.858 11.085,-4.23 14.595,-4.699 9.417,-6.95 2.881,-4.842 0,0" />
          </g>
          <g
             transform="translate(155.0049,446.8257)"
             id="g3473"
             style="fill:#000000">
            <path
               inkscape:connector-curvature="0"
               id="path3475"
               style="fill:#000000;fill-opacity:1;fill-rule:nonzero;stroke:none"
               d="M 0,0 C -0.924,1.975 -1.479,4.423 -0.712,6.514 0.353,2.931 2.379,-0.662 5.898,-2.311 9.632,-4.208 14.001,-3.469 17.8,-2.173 13.146,-7.525 3.215,-6.354 0,0" />
          </g>
          <g
             transform="translate(354.5762,433.2744)"
             id="g3477"
             style="fill:#000000">
            <path
               inkscape:connector-curvature="0"
               id="path3479"
               style="fill:#000000;fill-opacity:1;fill-rule:nonzero;stroke:none"
               d="M 0,0 C -1.607,2.866 -1.364,6.463 0.107,9.33 0.222,5.682 0.988,1.75 3.763,-0.855 6.91,-3.987 11.614,-4.617 15.857,-4.254 10.607,-7.584 2.918,-5.435 0,0" />
          </g>
          <g
             transform="translate(127.5347,438.1157)"
             id="g3481"
             style="fill:#000000">
            <path
               inkscape:connector-curvature="0"
               id="path3483"
               style="fill:#000000;fill-opacity:1;fill-rule:nonzero;stroke:none"
               d="m 0,0 c 1.557,-3.367 3.863,-6.729 7.529,-7.998 4.07,-1.557 8.466,-0.197 12.168,1.673 C 15.99,-11.874 6.899,-12.481 2.462,-7.501 0.615,-5.48 -0.064,-2.678 0,0" />
          </g>
          <g
             transform="translate(386.4336,410.9351)"
             id="g3485"
             style="fill:#000000">
            <path
               inkscape:connector-curvature="0"
               id="path3487"
               style="fill:#000000;fill-opacity:1;fill-rule:nonzero;stroke:none"
               d="M 0,0 C -6.573,1.351 -10.639,9.835 -7.28,15.692 -7.276,11.475 -6.229,6.849 -2.783,4.084 -0.031,1.7 3.744,1.332 7.231,1.323 5.085,0.046 2.462,-0.528 0,0" />
          </g>
          <g
             transform="translate(103.2661,423.8618)"
             id="g3489"
             style="fill:#000000">
            <path
               inkscape:connector-curvature="0"
               id="path3491"
               style="fill:#000000;fill-opacity:1;fill-rule:nonzero;stroke:none"
               d="M 0,0 C 0.932,-3.542 2.499,-7.217 5.756,-9.21 9.559,-11.696 14.419,-11.2 18.535,-9.817 13.918,-14.484 5.273,-13.864 1.456,-8.508 -0.373,-6.086 -0.52,-2.885 0,0" />
          </g>
          <g
             transform="translate(82.1812,395.6333)"
             id="g3493"
             style="fill:#000000">
            <path
               inkscape:connector-curvature="0"
               id="path3495"
               style="fill:#000000;fill-opacity:1;fill-rule:nonzero;stroke:none"
               d="M 0,0 C -1.364,2.605 -1.286,5.784 -0.157,8.462 0.115,4.626 1.502,0.598 4.712,-1.75 8.117,-4.336 12.683,-4.524 16.73,-3.721 11.585,-7.878 2.981,-5.83 0,0" />
          </g>
          <g
             transform="translate(399.8896,403.9707)"
             id="g3497"
             style="fill:#000000">
            <path
               inkscape:connector-curvature="0"
               id="path3499"
               style="fill:#000000;fill-opacity:1;fill-rule:nonzero;stroke:none"
               d="m 0,0 c 0.734,-3.514 2.152,-7.161 5.241,-9.252 3.66,-2.66 8.502,-2.407 12.669,-1.281 C 13.238,-14.961 4.826,-13.928 1.207,-8.663 -0.562,-6.173 -0.818,-2.884 0,0" />
          </g>
          <g
             transform="translate(62.7632,374.3511)"
             id="g3501"
             style="fill:#000000">
            <path
               inkscape:connector-curvature="0"
               id="path3503"
               style="fill:#000000;fill-opacity:1;fill-rule:nonzero;stroke:none"
               d="M 0,0 C -1.176,2.756 -0.685,5.925 0.625,8.54 0.694,4.851 1.424,0.873 4.189,-1.796 7.263,-4.929 11.902,-5.577 16.096,-5.356 10.552,-8.732 2.435,-5.995 0,0" />
          </g>
          <g
             transform="translate(418.8926,380.7686)"
             id="g3505"
             style="fill:#000000">
            <path
               inkscape:connector-curvature="0"
               id="path3507"
               style="fill:#000000;fill-opacity:1;fill-rule:nonzero;stroke:none"
               d="m 0,0 c 0.878,-3.588 2.306,-7.378 5.604,-9.422 3.57,-2.444 8.086,-2.035 12.114,-1.254 C 12.881,-15.054 4.254,-13.69 0.933,-8.099 -0.556,-5.688 -0.661,-2.692 0,0" />
          </g>
          <g
             transform="translate(291.6201,379.5098)"
             id="g3509"
             style="fill:#000000">
            <path
               inkscape:connector-curvature="0"
               id="path3511"
               style="fill:#000000;fill-opacity:1;fill-rule:nonzero;stroke:none"
               d="M 0,0 C 3.105,0.147 6.216,0.018 9.321,0.073 9.344,-2.5 9.339,-5.076 9.326,-7.648 6.232,-7.667 3.142,-7.663 0.051,-7.648 0.028,-5.1 0.078,-2.55 0,0" />
          </g>
          <g
             transform="translate(436.4082,361.02)"
             id="g3513"
             style="fill:#000000">
            <path
               inkscape:connector-curvature="0"
               id="path3515"
               style="fill:#000000;fill-opacity:1;fill-rule:nonzero;stroke:none"
               d="m 0,0 c -0.275,-3.965 -0.215,-8.333 2.38,-11.604 2.457,-3.367 6.729,-4.593 10.707,-4.823 C 10.134,-17.63 6.605,-17.847 3.8,-16.143 -1.612,-13.005 -3.389,-5.237 0,0" />
          </g>
          <g
             transform="translate(291.5977,358.3789)"
             id="g3517"
             style="fill:#000000">
            <path
               inkscape:connector-curvature="0"
               id="path3519"
               style="fill:#000000;fill-opacity:1;fill-rule:nonzero;stroke:none"
               d="m 0,0 c 3.105,0.253 6.234,0.041 9.349,0.11 0.012,-2.6 0.007,-5.204 0,-7.805 C 6.255,-7.704 3.164,-7.704 0.073,-7.699 0.032,-5.131 0.132,-2.563 0,0" />
          </g>
          <g
             transform="translate(46.8003,356.4355)"
             id="g3521"
             style="fill:#000000">
            <path
               inkscape:connector-curvature="0"
               id="path3523"
               style="fill:#000000;fill-opacity:1;fill-rule:nonzero;stroke:none"
               d="M 0,0 C 0.942,-3.56 2.426,-7.294 5.701,-9.325 9.399,-11.81 14.112,-11.401 18.205,-10.28 13.68,-14.626 5.582,-13.979 1.7,-9.091 -0.386,-6.587 -0.74,-3.087 0,0" />
          </g>
          <g
             transform="translate(457.1943,316.0479)"
             id="g3525"
             style="fill:#000000">
            <path
               inkscape:connector-curvature="0"
               id="path3527"
               style="fill:#000000;fill-opacity:1;fill-rule:nonzero;stroke:none"
               d="M 0,0 C -6.619,0.17 -12.095,7.308 -10.358,13.739 -9.38,9.5 -7.185,5.112 -3.036,3.225 0.249,1.576 4.007,2.223 7.425,3.027 5.385,1.231 2.785,-0.138 0,0" />
          </g>
          <g
             transform="translate(33.7446,328.0879)"
             id="g3529"
             style="fill:#000000">
            <path
               inkscape:connector-curvature="0"
               id="path3531"
               style="fill:#000000;fill-opacity:1;fill-rule:nonzero;stroke:none"
               d="M 0,0 C 1.195,-3.39 3.051,-6.831 6.381,-8.526 10.4,-10.712 15.224,-9.798 19.239,-8.099 15.275,-12.963 7.194,-13.243 2.752,-8.893 0.377,-6.642 -0.455,-3.169 0,0" />
          </g>
          <g
             transform="translate(461.0996,288.5181)"
             id="g3533"
             style="fill:#000000">
            <path
               inkscape:connector-curvature="0"
               id="path3535"
               style="fill:#000000;fill-opacity:1;fill-rule:nonzero;stroke:none"
               d="M 0,0 C -5.025,2.857 -7.341,9.767 -4.658,14.976 -4.686,10.758 -3.716,6.16 -0.395,3.271 2.374,0.703 6.326,0.18 9.954,0.358 7.105,-1.699 3.014,-1.759 0,0" />
          </g>
          <g
             transform="translate(27.4707,292.2344)"
             id="g3537"
             style="fill:#000000">
            <path
               inkscape:connector-curvature="0"
               id="path3539"
               style="fill:#000000;fill-opacity:1;fill-rule:nonzero;stroke:none"
               d="m 0,0 c -1.811,2.458 -2.04,5.71 -1.346,8.604 0.812,-3.615 2.42,-7.341 5.7,-9.362 3.703,-2.453 8.407,-2.049 12.49,-0.9 C 12.182,-6.15 3.711,-5.265 0,0" />
          </g>
          <g
             transform="translate(183.8018,277.2363)"
             id="g3541"
             style="fill:#000000">
            <path
               inkscape:connector-curvature="0"
               id="path3543"
               style="fill:#000000;fill-opacity:1;fill-rule:nonzero;stroke:none"
               d="m 0,0 c 7.024,-0.01 14.043,0.022 21.067,-0.014 -0.041,-7.144 0.055,-14.296 -0.046,-21.439 l -0.197,-0.179 C 13.883,-21.71 6.937,-21.646 -0.009,-21.66 -0.013,-14.438 -0.027,-7.218 0,0" />
          </g>
          <g
             transform="translate(127.0933,276.1978)"
             id="g3545"
             style="fill:#000000">
            <path
               inkscape:connector-curvature="0"
               id="path3547"
               style="fill:#000000;fill-opacity:1;fill-rule:nonzero;stroke:none"
               d="m 0,0 c 7.249,0 14.498,-0.014 21.751,0.005 0,-7.226 0.014,-14.457 -0.009,-21.687 C 14.493,-21.659 7.249,-21.686 0,-21.669 -0.013,-14.447 -0.009,-7.226 0,0" />
          </g>
          <g
             transform="translate(465.6611,260.0107)"
             id="g3549"
             style="fill:#000000">
            <path
               inkscape:connector-curvature="0"
               id="path3551"
               style="fill:#000000;fill-opacity:1;fill-rule:nonzero;stroke:none"
               d="M 0,0 C -5.054,3.449 -6.385,11.341 -2.489,16.132 -3.064,12.37 -3.317,8.236 -1.199,4.868 0.914,1.235 5.116,-0.442 9.114,-0.933 6.16,-2.108 2.623,-1.839 0,0" />
          </g>
          <g
             transform="translate(21.5908,263.3672)"
             id="g3553"
             style="fill:#000000">
            <path
               inkscape:connector-curvature="0"
               id="path3555"
               style="fill:#000000;fill-opacity:1;fill-rule:nonzero;stroke:none"
               d="M 0,0 C -2.21,2.918 -2.513,7.199 -0.616,10.346 -0.607,6.504 0.455,2.385 3.491,-0.192 6.628,-2.98 11.043,-3.414 15.062,-3.187 10.183,-6.15 3.316,-4.574 0,0" />
          </g>
          <g
             transform="translate(470.2969,228.8604)"
             id="g3557"
             style="fill:#000000">
            <path
               inkscape:connector-curvature="0"
               id="path3559"
               style="fill:#000000;fill-opacity:1;fill-rule:nonzero;stroke:none"
               d="M 0,0 C -6.863,1.36 -10.874,10.423 -7.085,16.32 -7.323,11.801 -6.313,6.724 -2.531,3.821 0.072,1.612 3.56,1.35 6.789,0.928 4.644,0.096 2.3,-0.496 0,0" />
          </g>
          <g
             transform="translate(20.2266,234.0098)"
             id="g3561"
             style="fill:#000000">
            <path
               inkscape:connector-curvature="0"
               id="path3563"
               style="fill:#000000;fill-opacity:1;fill-rule:nonzero;stroke:none"
               d="M 0,0 C -1.925,2.618 -2.15,6.183 -1.039,9.178 -0.515,5.389 0.946,1.419 4.286,-0.758 7.79,-3.212 12.311,-3.061 16.326,-2.27 11.511,-6.225 3.587,-5.035 0,0" />
          </g>
          <g
             transform="translate(466.3643,200.0996)"
             id="g3565"
             style="fill:#000000">
            <path
               inkscape:connector-curvature="0"
               id="path3567"
               style="fill:#000000;fill-opacity:1;fill-rule:nonzero;stroke:none"
               d="M 0,0 C -6.109,1.81 -9.717,9.338 -7.148,15.219 -6.905,10.804 -5.406,6.017 -1.548,3.458 1.475,1.328 5.348,1.253 8.874,1.735 6.33,-0.043 3.036,-0.951 0,0" />
          </g>
          <g
             transform="translate(22.4312,213.6279)"
             id="g3569"
             style="fill:#000000">
            <path
               inkscape:connector-curvature="0"
               id="path3571"
               style="fill:#000000;fill-opacity:1;fill-rule:nonzero;stroke:none"
               d="m 0,0 c 0.652,-3.399 1.658,-7.005 4.456,-9.294 3.473,-3.059 8.466,-3.164 12.779,-2.259 C 12.003,-16.078 2.66,-13.751 0.069,-7.346 -0.919,-5.009 -0.662,-2.385 0,0" />
          </g>
          <g
             transform="translate(29.7583,185.4785)"
             id="g3573"
             style="fill:#000000">
            <path
               inkscape:connector-curvature="0"
               id="path3575"
               style="fill:#000000;fill-opacity:1;fill-rule:nonzero;stroke:none"
               d="m 0,0 c 0.266,-3.838 1.423,-7.939 4.584,-10.402 3.261,-2.691 7.754,-2.925 11.765,-2.332 C 10.85,-16.992 1.603,-14.012 -0.478,-7.392 -1.305,-4.961 -0.841,-2.353 0,0" />
          </g>
          <g
             transform="translate(451.7695,184.0674)"
             id="g3577"
             style="fill:#000000">
            <path
               inkscape:connector-curvature="0"
               id="path3579"
               style="fill:#000000;fill-opacity:1;fill-rule:nonzero;stroke:none"
               d="m 0,0 c 0.859,-4.384 3.151,-8.93 7.432,-10.814 3.18,-1.534 6.808,-1.006 10.111,-0.211 -2.21,-2.113 -5.346,-3.375 -8.411,-2.871 C 2.917,-12.982 -1.782,-6.114 0,0" />
          </g>
          <g
             transform="translate(40.7412,148.4072)"
             id="g3581"
             style="fill:#000000">
            <path
               inkscape:connector-curvature="0"
               id="path3583"
               style="fill:#000000;fill-opacity:1;fill-rule:nonzero;stroke:none"
               d="M 0,0 C -1.754,2.608 -2.292,6.381 -0.675,9.146 -0.312,5.166 1.235,0.978 4.769,-1.228 8.044,-3.47 12.168,-3.336 15.949,-3.02 10.933,-6.458 3.395,-5.041 0,0" />
          </g>
          <g
             transform="translate(440.2939,152.3301)"
             id="g3585"
             style="fill:#000000">
            <path
               inkscape:connector-curvature="0"
               id="path3587"
               style="fill:#000000;fill-opacity:1;fill-rule:nonzero;stroke:none"
               d="m 0,0 c 2.444,-3.271 5.752,-6.331 9.987,-6.809 4.016,-0.578 7.797,1.483 10.704,4.066 -1.157,-3.23 -4.014,-5.844 -7.447,-6.389 C 7.35,-10.226 1.006,-5.957 0,0" />
          </g>
          <g
             transform="translate(53.6772,127.1328)"
             id="g3589"
             style="fill:#000000">
            <path
               inkscape:connector-curvature="0"
               id="path3591"
               style="fill:#000000;fill-opacity:1;fill-rule:nonzero;stroke:none"
               d="M 0,0 C -0.308,2.863 0.891,5.696 2.792,7.791 1.686,3.927 1.631,-0.579 4.116,-3.937 6.458,-7.271 10.479,-8.779 14.341,-9.484 8.029,-11.543 0.634,-6.565 0,0" />
          </g>
          <g
             transform="translate(426.3203,126.3291)"
             id="g3593"
             style="fill:#000000">
            <path
               inkscape:connector-curvature="0"
               id="path3595"
               style="fill:#000000;fill-opacity:1;fill-rule:nonzero;stroke:none"
               d="m 0,0 c 2.614,-3.128 5.895,-6.266 10.199,-6.551 3.881,-0.501 7.36,1.618 10.299,3.887 C 19.396,-5.575 16.892,-7.956 13.846,-8.7 7.915,-10.23 1.084,-6.091 0,0" />
          </g>
          <g
             transform="translate(72.9243,97.8623)"
             id="g3597"
             style="fill:#000000">
            <path
               inkscape:connector-curvature="0"
               id="path3599"
               style="fill:#000000;fill-opacity:1;fill-rule:nonzero;stroke:none"
               d="M 0,0 C -1.667,2.339 -2.159,5.425 -1.433,8.187 -0.5,4.497 1.438,0.769 4.952,-1.033 8.636,-3.052 13.051,-2.49 16.892,-1.263 12.44,-6.019 3.763,-5.237 0,0" />
          </g>
          <g
             transform="translate(409.1074,102.29)"
             id="g3601"
             style="fill:#000000">
            <path
               inkscape:connector-curvature="0"
               id="path3603"
               style="fill:#000000;fill-opacity:1;fill-rule:nonzero;stroke:none"
               d="m 0,0 c 2.39,-2.861 5.228,-5.714 9.051,-6.431 4.249,-0.96 8.493,1.108 11.534,3.969 C 19.594,-5.429 17.104,-7.867 14.071,-8.686 8.076,-10.373 1.104,-6.178 0,0" />
          </g>
          <g
             transform="translate(92.7324,87.7568)"
             id="g3605"
             style="fill:#000000">
            <path
               inkscape:connector-curvature="0"
               id="path3607"
               style="fill:#000000;fill-opacity:1;fill-rule:nonzero;stroke:none"
               d="m 0,0 c 0.165,-3.638 0.768,-7.565 3.459,-10.259 3.041,-3.223 7.713,-3.903 11.93,-3.699 C 9.643,-17.553 0.992,-14.142 -0.864,-7.642 -1.654,-5.091 -1.033,-2.385 0,0" />
          </g>
          <g
             transform="translate(388.7344,80.2734)"
             id="g3609"
             style="fill:#000000">
            <path
               inkscape:connector-curvature="0"
               id="path3611"
               style="fill:#000000;fill-opacity:1;fill-rule:nonzero;stroke:none"
               d="m 0,0 c 2.362,-2.78 5.444,-5.283 9.216,-5.604 4.457,-0.5 8.549,2.022 11.553,5.08 C 18.908,-7.044 10.166,-10.171 4.489,-6.578 2.133,-5.141 0.647,-2.633 0,0" />
          </g>
          <g
             transform="translate(116.6704,58.0361)"
             id="g3613"
             style="fill:#000000">
            <path
               inkscape:connector-curvature="0"
               id="path3615"
               style="fill:#000000;fill-opacity:1;fill-rule:nonzero;stroke:none"
               d="M 0,0 C -1.838,2.524 -2.224,5.963 -1.19,8.884 -0.583,5.172 1.047,1.359 4.345,-0.713 7.979,-3.144 12.624,-2.827 16.68,-1.798 11.925,-6.032 3.721,-5.173 0,0" />
          </g>
          <g
             transform="translate(365.0635,64.1367)"
             id="g3617"
             style="fill:#000000">
            <path
               inkscape:connector-curvature="0"
               id="path3619"
               style="fill:#000000;fill-opacity:1;fill-rule:nonzero;stroke:none"
               d="m 0,0 c 2.128,-3.212 5.025,-6.345 9.028,-6.955 4.185,-0.827 8.207,1.151 11.548,3.48 C 17.715,-9.417 9.097,-11.431 3.864,-7.438 1.517,-5.692 0.359,-2.827 0,0" />
          </g>
          <g
             transform="translate(142.1143,43.0029)"
             id="g3621"
             style="fill:#000000">
            <path
               inkscape:connector-curvature="0"
               id="path3623"
               style="fill:#000000;fill-opacity:1;fill-rule:nonzero;stroke:none"
               d="M 0,0 C -1.433,1.981 -2.402,4.641 -1.75,7.062 -0.431,3.64 1.888,0.342 5.435,-1.009 9.399,-2.626 13.836,-1.527 17.53,0.297 13.556,-5.282 4.153,-5.445 0,0" />
          </g>
          <g
             transform="translate(340.1201,49.9951)"
             id="g3625"
             style="fill:#000000">
            <path
               inkscape:connector-curvature="0"
               id="path3627"
               style="fill:#000000;fill-opacity:1;fill-rule:nonzero;stroke:none"
               d="M 0,0 C 1.525,-3.546 4.044,-6.984 7.864,-8.227 11.89,-9.633 16.171,-8.282 19.813,-6.438 16.143,-11.941 7.295,-12.641 2.729,-7.904 0.661,-5.842 -0.1,-2.842 0,0" />
          </g>
          <g
             transform="translate(313.8896,31.9795)"
             id="g3629"
             style="fill:#000000">
            <path
               inkscape:connector-curvature="0"
               id="path3631"
               style="fill:#000000;fill-opacity:1;fill-rule:nonzero;stroke:none"
               d="M 0,0 C -1.395,2.224 -1.551,4.961 -1.152,7.491 -0.123,3.97 1.692,0.395 5.04,-1.43 8.844,-3.656 13.525,-3.026 17.489,-1.575 13.001,-6.77 3.533,-5.861 0,0" />
          </g>
          <g
             transform="translate(168.0098,38.9336)"
             id="g3633"
             style="fill:#000000">
            <path
               inkscape:connector-curvature="0"
               id="path3635"
               style="fill:#000000;fill-opacity:1;fill-rule:nonzero;stroke:none"
               d="M 0,0 C 1.322,-3.224 3.266,-6.454 6.518,-8.038 10.68,-10.193 15.65,-9.132 19.651,-7.114 15.797,-12.384 7.166,-12.909 2.641,-8.236 0.509,-6.085 -0.208,-2.938 0,0" />
          </g>
          <g
             transform="translate(285.2402,32.5361)"
             id="g3637"
             style="fill:#000000">
            <path
               inkscape:connector-curvature="0"
               id="path3639"
               style="fill:#000000;fill-opacity:1;fill-rule:nonzero;stroke:none"
               d="m 0,0 c 0.533,-0.694 0.514,-1.608 0.739,-2.435 0.823,-3.678 3.335,-7.075 6.923,-8.443 3.164,-1.319 6.68,-0.965 9.958,-0.337 C 12.812,-15.164 4.929,-14.077 1.305,-9.051 -0.639,-6.482 -0.883,-3.016 0,0" />
          </g>
          <g
             transform="translate(197.0273,31.7178)"
             id="g3641"
             style="fill:#000000">
            <path
               inkscape:connector-curvature="0"
               id="path3643"
               style="fill:#000000;fill-opacity:1;fill-rule:nonzero;stroke:none"
               d="m 0,0 c 0.073,0.074 0.225,0.22 0.299,0.293 0.771,-3.841 2.885,-7.692 6.564,-9.417 3.551,-1.8 7.68,-1.212 11.383,-0.257 C 13.979,-13.479 6.537,-13.129 2.453,-8.944 0.143,-6.657 -0.744,-3.125 0,0" />
          </g>
          <g
             transform="translate(255.5146,23.2646)"
             id="g3645"
             style="fill:#000000">
            <path
               inkscape:connector-curvature="0"
               id="path3647"
               style="fill:#000000;fill-opacity:1;fill-rule:nonzero;stroke:none"
               d="M 0,0 C -0.626,2.486 -0.01,5.087 1.103,7.333 0.964,3.455 1.883,-0.752 4.864,-3.458 7.878,-6.353 12.273,-6.954 16.284,-6.829 10.418,-10.51 1.548,-6.734 0,0" />
          </g>
          <g
             transform="translate(225.9312,29.4072)"
             id="g3649"
             style="fill:#000000">
            <path
               inkscape:connector-curvature="0"
               id="path3651"
               style="fill:#000000;fill-opacity:1;fill-rule:nonzero;stroke:none"
               d="m 0,0 c 0.836,-3.733 2.384,-7.667 5.834,-9.72 3.555,-2.324 7.988,-1.855 11.934,-1.038 C 13.046,-15.002 4.828,-13.96 1.244,-8.751 -0.561,-6.229 -0.717,-2.931 0,0" />
          </g>
        </g>
      </g>
    </g>
  </g>
</svg>
