<?xml version="1.0" encoding="UTF-8" standalone="no"?>
<!-- Created with Inkscape (http://www.inkscape.org/) -->

<svg
   xmlns:dc="http://purl.org/dc/elements/1.1/"
   xmlns:cc="http://creativecommons.org/ns#"
   xmlns:rdf="http://www.w3.org/1999/02/22-rdf-syntax-ns#"
   xmlns:svg="http://www.w3.org/2000/svg"
   xmlns="http://www.w3.org/2000/svg"
   xmlns:sodipodi="http://sodipodi.sourceforge.net/DTD/sodipodi-0.dtd"
   xmlns:inkscape="http://www.inkscape.org/namespaces/inkscape"
   id="svg4136"
   version="1.1"
   inkscape:version="0.91 r13725"
   xml:space="preserve"
   width="765"
   height="990"
   viewBox="0 0 765 990"
   sodipodi:docname="neighbors.svg"><sodipodi:namedview
     pagecolor="#ffffff"
     bordercolor="#666666"
     borderopacity="1"
     objecttolerance="10"
     gridtolerance="10"
     guidetolerance="10"
     inkscape:pageopacity="0"
     inkscape:pageshadow="2"
     inkscape:window-width="1366"
     inkscape:window-height="705"
     id="namedview4138"
     showgrid="true"
     inkscape:zoom="2.0444444"
     inkscape:cx="478.94341"
     inkscape:cy="456.8236"
     inkscape:window-x="-8"
     inkscape:window-y="-8"
     inkscape:window-maximized="1"
     inkscape:current-layer="g4144"
     showguides="false" /><metadata
     id="metadata4142"><rdf:RDF><cc:Work
         rdf:about=""><dc:format>image/svg+xml</dc:format><dc:type
           rdf:resource="http://purl.org/dc/dcmitype/StillImage" /><dc:title></dc:title></cc:Work></rdf:RDF></metadata><defs
     id="defs4140" /><g
     id="g4144"
     inkscape:groupmode="layer"
     inkscape:label="Martin Kreuzer, Lorenzo Robbiano-Computational Commutative Algebra 2-Springer (2005)"
     transform="matrix(1.25,0,0,-1.25,0,990)"><g
       id="g5784"
       transform="matrix(0.12,0,0,-0.12,0,792)"><path
         d="m 2148,3701 0,-728 m 0,728 896,0"
         style="fill:none;stroke:#000000;stroke-width:4;stroke-linecap:butt;stroke-linejoin:miter;stroke-miterlimit:10;stroke-dasharray:none;stroke-opacity:1"
         id="path5786"
         inkscape:connector-curvature="0" /></g><path
       d="m 358.92,347.88 c 0,0.24 -0.24,0.36 -0.36,0.36 -0.24,0 -0.36,-0.12 -0.36,-0.36 0,-0.12 0.12,-0.36 0.36,-0.36 0.12,0 0.36,0.24 0.36,0.36 z"
       style="fill:#000000;fill-opacity:1;fill-rule:nonzero;stroke:none"
       id="path5788"
       inkscape:connector-curvature="0" /><path
       d="m 359.4,347.88 c 0,0.24 -0.24,0.36 -0.36,0.36 -0.24,0 -0.36,-0.12 -0.36,-0.36 0,-0.12 0.12,-0.36 0.36,-0.36 0.12,0 0.36,0.24 0.36,0.36 z"
       style="fill:#000000;fill-opacity:1;fill-rule:nonzero;stroke:none"
       id="path5790"
       inkscape:connector-curvature="0" /><path
       d="m 359.88,347.88 c 0,0.24 -0.24,0.36 -0.36,0.36 -0.24,0 -0.36,-0.12 -0.36,-0.36 0,-0.12 0.12,-0.36 0.36,-0.36 0.12,0 0.36,0.24 0.36,0.36 z"
       style="fill:#000000;fill-opacity:1;fill-rule:nonzero;stroke:none"
       id="path5792"
       inkscape:connector-curvature="0" /><path
       d="m 360.36,347.88 c 0,0.24 -0.24,0.36 -0.36,0.36 -0.24,0 -0.36,-0.12 -0.36,-0.36 0,-0.12 0.12,-0.36 0.36,-0.36 0.12,0 0.36,0.24 0.36,0.36 z"
       style="fill:#000000;fill-opacity:1;fill-rule:nonzero;stroke:none"
       id="path5794"
       inkscape:connector-curvature="0" /><path
       d="m 360.84,347.88 c 0,0.24 -0.24,0.36 -0.36,0.36 -0.24,0 -0.36,-0.12 -0.36,-0.36 0,-0.12 0.12,-0.36 0.36,-0.36 0.12,0 0.36,0.24 0.36,0.36 z"
       style="fill:#000000;fill-opacity:1;fill-rule:nonzero;stroke:none"
       id="path5796"
       inkscape:connector-curvature="0" /><path
       d="m 361.32,347.88 c 0,0.24 -0.24,0.36 -0.36,0.36 -0.24,0 -0.36,-0.12 -0.36,-0.36 0,-0.12 0.12,-0.36 0.36,-0.36 0.12,0 0.36,0.24 0.36,0.36 z"
       style="fill:#000000;fill-opacity:1;fill-rule:nonzero;stroke:none"
       id="path5798"
       inkscape:connector-curvature="0" /><path
       d="m 361.68,347.88 c 0,0.24 -0.12,0.36 -0.36,0.36 -0.12,0 -0.36,-0.12 -0.36,-0.36 0,-0.12 0.24,-0.36 0.36,-0.36 0.24,0 0.36,0.24 0.36,0.36 z"
       style="fill:#000000;fill-opacity:1;fill-rule:nonzero;stroke:none"
       id="path5800"
       inkscape:connector-curvature="0" /><path
       d="m 362.16,347.88 c 0,0.24 -0.12,0.36 -0.36,0.36 -0.12,0 -0.36,-0.12 -0.36,-0.36 0,-0.12 0.24,-0.36 0.36,-0.36 0.24,0 0.36,0.24 0.36,0.36 z"
       style="fill:#000000;fill-opacity:1;fill-rule:nonzero;stroke:none"
       id="path5802"
       inkscape:connector-curvature="0" /><path
       d="m 362.64,347.88 c 0,0.24 -0.12,0.36 -0.36,0.36 -0.12,0 -0.36,-0.12 -0.36,-0.36 0,-0.12 0.24,-0.36 0.36,-0.36 0.24,0 0.36,0.24 0.36,0.36 z"
       style="fill:#000000;fill-opacity:1;fill-rule:nonzero;stroke:none"
       id="path5804"
       inkscape:connector-curvature="0" /><path
       d="m 363.12,347.88 c 0,0.24 -0.12,0.36 -0.36,0.36 -0.12,0 -0.36,-0.12 -0.36,-0.36 0,-0.12 0.24,-0.36 0.36,-0.36 0.24,0 0.36,0.24 0.36,0.36 z"
       style="fill:#000000;fill-opacity:1;fill-rule:nonzero;stroke:none"
       id="path5806"
       inkscape:connector-curvature="0" /><path
       d="m 363.6,347.88 c 0,0.24 -0.12,0.36 -0.36,0.36 -0.12,0 -0.36,-0.12 -0.36,-0.36 0,-0.12 0.24,-0.36 0.36,-0.36 0.24,0 0.36,0.24 0.36,0.36 z"
       style="fill:#000000;fill-opacity:1;fill-rule:nonzero;stroke:none"
       id="path5808"
       inkscape:connector-curvature="0" /><path
       d="m 364.08,347.88 c 0,0.24 -0.12,0.36 -0.36,0.36 -0.12,0 -0.36,-0.12 -0.36,-0.36 0,-0.12 0.24,-0.36 0.36,-0.36 0.24,0 0.36,0.24 0.36,0.36 z"
       style="fill:#000000;fill-opacity:1;fill-rule:nonzero;stroke:none"
       id="path5810"
       inkscape:connector-curvature="0" /><path
       d="m 364.56,347.88 c 0,0.24 -0.12,0.36 -0.36,0.36 -0.12,0 -0.36,-0.12 -0.36,-0.36 0,-0.12 0.24,-0.36 0.36,-0.36 0.24,0 0.36,0.24 0.36,0.36 z"
       style="fill:#000000;fill-opacity:1;fill-rule:nonzero;stroke:none"
       id="path5812"
       inkscape:connector-curvature="0" /><path
       d="m 365.04,347.88 c 0,0.24 -0.12,0.36 -0.36,0.36 -0.12,0 -0.36,-0.12 -0.36,-0.36 0,-0.12 0.24,-0.36 0.36,-0.36 0.24,0 0.36,0.24 0.36,0.36 z"
       style="fill:#000000;fill-opacity:1;fill-rule:nonzero;stroke:none"
       id="path5814"
       inkscape:connector-curvature="0" /><path
       d="m 365.52,347.88 c 0,0.24 -0.12,0.36 -0.36,0.36 -0.12,0 -0.36,-0.12 -0.36,-0.36 0,-0.12 0.24,-0.36 0.36,-0.36 0.24,0 0.36,0.24 0.36,0.36 z"
       style="fill:#000000;fill-opacity:1;fill-rule:nonzero;stroke:none"
       id="path5816"
       inkscape:connector-curvature="0" /><path
       d="m 365.52,347.88 c 0,0.24 -0.12,0.36 -0.36,0.36 -0.12,0 -0.36,-0.12 -0.36,-0.36 0,-0.12 0.24,-0.36 0.36,-0.36 0.24,0 0.36,0.24 0.36,0.36 z"
       style="fill:#000000;fill-opacity:1;fill-rule:nonzero;stroke:none"
       id="path5818"
       inkscape:connector-curvature="0" /><path
       d="m 365.16,347.88 c 0,0.24 -0.24,0.36 -0.36,0.36 -0.24,0 -0.36,-0.12 -0.36,-0.36 0,-0.24 0.12,-0.36 0.36,-0.36 0.12,0 0.36,0.12 0.36,0.36 z"
       style="fill:#000000;fill-opacity:1;fill-rule:nonzero;stroke:none"
       id="path5820"
       inkscape:connector-curvature="0" /><path
       d="m 364.68,347.76 c 0,0.24 -0.24,0.36 -0.36,0.36 -0.24,0 -0.36,-0.12 -0.36,-0.36 0,-0.12 0.12,-0.36 0.36,-0.36 0.12,0 0.36,0.24 0.36,0.36 z"
       style="fill:#000000;fill-opacity:1;fill-rule:nonzero;stroke:none"
       id="path5822"
       inkscape:connector-curvature="0" /><path
       d="m 364.2,347.76 c 0,0.12 -0.12,0.36 -0.36,0.36 -0.24,0 -0.36,-0.24 -0.36,-0.36 0,-0.24 0.12,-0.36 0.36,-0.36 0.12,0 0.36,0.12 0.36,0.36 z"
       style="fill:#000000;fill-opacity:1;fill-rule:nonzero;stroke:none"
       id="path5824"
       inkscape:connector-curvature="0" /><path
       d="m 363.72,347.64 c 0,0.24 -0.12,0.36 -0.36,0.36 -0.24,0 -0.36,-0.12 -0.36,-0.36 0,-0.24 0.12,-0.36 0.36,-0.36 0.24,0 0.36,0.12 0.36,0.36 z"
       style="fill:#000000;fill-opacity:1;fill-rule:nonzero;stroke:none"
       id="path5826"
       inkscape:connector-curvature="0" /><path
       d="m 363.24,347.52 c 0,0.24 -0.12,0.36 -0.36,0.36 -0.24,0 -0.36,-0.12 -0.36,-0.36 0,-0.24 0.12,-0.36 0.36,-0.36 0.24,0 0.36,0.12 0.36,0.36 z"
       style="fill:#000000;fill-opacity:1;fill-rule:nonzero;stroke:none"
       id="path5828"
       inkscape:connector-curvature="0" /><path
       d="m 362.76,347.4 c 0,0.24 -0.12,0.36 -0.36,0.36 -0.12,0 -0.36,-0.12 -0.36,-0.36 0,-0.24 0.24,-0.36 0.36,-0.36 0.24,0 0.36,0.12 0.36,0.36 z"
       style="fill:#000000;fill-opacity:1;fill-rule:nonzero;stroke:none"
       id="path5830"
       inkscape:connector-curvature="0" /><path
       d="m 362.4,347.28 c 0,0.24 -0.24,0.36 -0.36,0.36 -0.24,0 -0.36,-0.12 -0.36,-0.36 0,-0.24 0.12,-0.36 0.36,-0.36 0.12,0 0.36,0.12 0.36,0.36 z"
       style="fill:#000000;fill-opacity:1;fill-rule:nonzero;stroke:none"
       id="path5832"
       inkscape:connector-curvature="0" /><path
       d="m 361.92,347.16 c 0,0.12 -0.12,0.36 -0.36,0.36 -0.24,0 -0.36,-0.24 -0.36,-0.36 0,-0.24 0.12,-0.36 0.36,-0.36 0.24,0 0.36,0.12 0.36,0.36 z"
       style="fill:#000000;fill-opacity:1;fill-rule:nonzero;stroke:none"
       id="path5834"
       inkscape:connector-curvature="0" /><path
       d="m 361.44,346.92 c 0,0.24 -0.12,0.36 -0.36,0.36 -0.12,0 -0.36,-0.12 -0.36,-0.36 0,-0.12 0.24,-0.36 0.36,-0.36 0.24,0 0.36,0.24 0.36,0.36 z"
       style="fill:#000000;fill-opacity:1;fill-rule:nonzero;stroke:none"
       id="path5836"
       inkscape:connector-curvature="0" /><path
       d="m 361.08,346.8 c 0,0.12 -0.24,0.36 -0.36,0.36 -0.24,0 -0.36,-0.24 -0.36,-0.36 0,-0.24 0.12,-0.36 0.36,-0.36 0.12,0 0.36,0.12 0.36,0.36 z"
       style="fill:#000000;fill-opacity:1;fill-rule:nonzero;stroke:none"
       id="path5838"
       inkscape:connector-curvature="0" /><path
       d="m 360.6,346.56 c 0,0.24 -0.12,0.36 -0.36,0.36 -0.24,0 -0.36,-0.12 -0.36,-0.36 0,-0.12 0.12,-0.36 0.36,-0.36 0.24,0 0.36,0.24 0.36,0.36 z"
       style="fill:#000000;fill-opacity:1;fill-rule:nonzero;stroke:none"
       id="path5840"
       inkscape:connector-curvature="0" /><path
       d="m 360.12,346.44 c 0,0.12 -0.12,0.36 -0.36,0.36 -0.12,0 -0.36,-0.24 -0.36,-0.36 0,-0.24 0.24,-0.36 0.36,-0.36 0.24,0 0.36,0.12 0.36,0.36 z"
       style="fill:#000000;fill-opacity:1;fill-rule:nonzero;stroke:none"
       id="path5842"
       inkscape:connector-curvature="0" /><path
       d="m 359.76,346.2 c 0,0.12 -0.12,0.36 -0.36,0.36 -0.24,0 -0.36,-0.24 -0.36,-0.36 0,-0.24 0.12,-0.36 0.36,-0.36 0.24,0 0.36,0.12 0.36,0.36 z"
       style="fill:#000000;fill-opacity:1;fill-rule:nonzero;stroke:none"
       id="path5844"
       inkscape:connector-curvature="0" /><path
       d="m 359.4,345.96 c 0,0.12 -0.24,0.36 -0.36,0.36 -0.24,0 -0.36,-0.24 -0.36,-0.36 0,-0.24 0.12,-0.36 0.36,-0.36 0.12,0 0.36,0.12 0.36,0.36 z"
       style="fill:#000000;fill-opacity:1;fill-rule:nonzero;stroke:none"
       id="path5846"
       inkscape:connector-curvature="0" /><path
       d="m 358.92,345.72 c 0,0.12 -0.12,0.36 -0.36,0.36 -0.24,0 -0.36,-0.24 -0.36,-0.36 0,-0.24 0.12,-0.36 0.36,-0.36 0.24,0 0.36,0.12 0.36,0.36 z"
       style="fill:#000000;fill-opacity:1;fill-rule:nonzero;stroke:none"
       id="path5848"
       inkscape:connector-curvature="0" /><path
       d="m 365.64,347.88 c 0,0.24 -0.24,0.36 -0.36,0.36 -0.24,0 -0.36,-0.12 -0.36,-0.36 0,-0.12 0.12,-0.36 0.36,-0.36 0.12,0 0.36,0.24 0.36,0.36 z"
       style="fill:#000000;fill-opacity:1;fill-rule:nonzero;stroke:none"
       id="path5850"
       inkscape:connector-curvature="0" /><path
       d="m 365.16,348 c 0,0.12 -0.24,0.36 -0.36,0.36 -0.24,0 -0.36,-0.24 -0.36,-0.36 0,-0.24 0.12,-0.36 0.36,-0.36 0.12,0 0.36,0.12 0.36,0.36 z"
       style="fill:#000000;fill-opacity:1;fill-rule:nonzero;stroke:none"
       id="path5852"
       inkscape:connector-curvature="0" /><path
       d="m 364.68,348 c 0,0.24 -0.24,0.36 -0.36,0.36 -0.24,0 -0.36,-0.12 -0.36,-0.36 0,-0.24 0.12,-0.36 0.36,-0.36 0.12,0 0.36,0.12 0.36,0.36 z"
       style="fill:#000000;fill-opacity:1;fill-rule:nonzero;stroke:none"
       id="path5854"
       inkscape:connector-curvature="0" /><path
       d="m 364.2,348.12 c 0,0.12 -0.24,0.36 -0.36,0.36 -0.24,0 -0.36,-0.24 -0.36,-0.36 0,-0.24 0.12,-0.36 0.36,-0.36 0.12,0 0.36,0.12 0.36,0.36 z"
       style="fill:#000000;fill-opacity:1;fill-rule:nonzero;stroke:none"
       id="path5856"
       inkscape:connector-curvature="0" /><path
       d="m 363.72,348.12 c 0,0.24 -0.12,0.36 -0.36,0.36 -0.24,0 -0.36,-0.12 -0.36,-0.36 0,-0.12 0.12,-0.36 0.36,-0.36 0.24,0 0.36,0.24 0.36,0.36 z"
       style="fill:#000000;fill-opacity:1;fill-rule:nonzero;stroke:none"
       id="path5858"
       inkscape:connector-curvature="0" /><path
       d="m 363.24,348.24 c 0,0.24 -0.12,0.36 -0.36,0.36 -0.24,0 -0.36,-0.12 -0.36,-0.36 0,-0.12 0.12,-0.36 0.36,-0.36 0.24,0 0.36,0.24 0.36,0.36 z"
       style="fill:#000000;fill-opacity:1;fill-rule:nonzero;stroke:none"
       id="path5860"
       inkscape:connector-curvature="0" /><path
       d="m 362.76,348.36 c 0,0.24 -0.12,0.36 -0.36,0.36 -0.12,0 -0.36,-0.12 -0.36,-0.36 0,-0.12 0.24,-0.36 0.36,-0.36 0.24,0 0.36,0.24 0.36,0.36 z"
       style="fill:#000000;fill-opacity:1;fill-rule:nonzero;stroke:none"
       id="path5862"
       inkscape:connector-curvature="0" /><path
       d="m 362.4,348.48 c 0,0.24 -0.24,0.36 -0.36,0.36 -0.24,0 -0.36,-0.12 -0.36,-0.36 0,-0.12 0.12,-0.36 0.36,-0.36 0.12,0 0.36,0.24 0.36,0.36 z"
       style="fill:#000000;fill-opacity:1;fill-rule:nonzero;stroke:none"
       id="path5864"
       inkscape:connector-curvature="0" /><path
       d="m 361.92,348.72 c 0,0.12 -0.12,0.36 -0.36,0.36 -0.24,0 -0.36,-0.24 -0.36,-0.36 0,-0.24 0.12,-0.36 0.36,-0.36 0.24,0 0.36,0.12 0.36,0.36 z"
       style="fill:#000000;fill-opacity:1;fill-rule:nonzero;stroke:none"
       id="path5866"
       inkscape:connector-curvature="0" /><path
       d="m 361.44,348.84 c 0,0.24 -0.12,0.36 -0.36,0.36 -0.12,0 -0.36,-0.12 -0.36,-0.36 0,-0.24 0.24,-0.36 0.36,-0.36 0.24,0 0.36,0.12 0.36,0.36 z"
       style="fill:#000000;fill-opacity:1;fill-rule:nonzero;stroke:none"
       id="path5868"
       inkscape:connector-curvature="0" /><path
       d="m 361.08,349.08 c 0,0.12 -0.24,0.36 -0.36,0.36 -0.24,0 -0.36,-0.24 -0.36,-0.36 0,-0.24 0.12,-0.36 0.36,-0.36 0.12,0 0.36,0.12 0.36,0.36 z"
       style="fill:#000000;fill-opacity:1;fill-rule:nonzero;stroke:none"
       id="path5870"
       inkscape:connector-curvature="0" /><path
       d="m 360.6,349.2 c 0,0.24 -0.12,0.36 -0.36,0.36 -0.24,0 -0.36,-0.12 -0.36,-0.36 0,-0.12 0.12,-0.36 0.36,-0.36 0.24,0 0.36,0.24 0.36,0.36 z"
       style="fill:#000000;fill-opacity:1;fill-rule:nonzero;stroke:none"
       id="path5872"
       inkscape:connector-curvature="0" /><path
       d="m 360.12,349.44 c 0,0.24 -0.12,0.36 -0.36,0.36 -0.12,0 -0.36,-0.12 -0.36,-0.36 0,-0.24 0.24,-0.36 0.36,-0.36 0.24,0 0.36,0.12 0.36,0.36 z"
       style="fill:#000000;fill-opacity:1;fill-rule:nonzero;stroke:none"
       id="path5874"
       inkscape:connector-curvature="0" /><path
       d="m 359.76,349.68 c 0,0.12 -0.12,0.36 -0.36,0.36 -0.24,0 -0.36,-0.24 -0.36,-0.36 0,-0.24 0.12,-0.36 0.36,-0.36 0.24,0 0.36,0.12 0.36,0.36 z"
       style="fill:#000000;fill-opacity:1;fill-rule:nonzero;stroke:none"
       id="path5876"
       inkscape:connector-curvature="0" /><path
       d="m 359.4,349.92 c 0,0.12 -0.24,0.36 -0.36,0.36 -0.24,0 -0.36,-0.24 -0.36,-0.36 0,-0.24 0.12,-0.36 0.36,-0.36 0.12,0 0.36,0.12 0.36,0.36 z"
       style="fill:#000000;fill-opacity:1;fill-rule:nonzero;stroke:none"
       id="path5878"
       inkscape:connector-curvature="0" /><path
       d="m 358.92,350.16 c 0,0.12 -0.12,0.36 -0.36,0.36 -0.24,0 -0.36,-0.24 -0.36,-0.36 0,-0.24 0.12,-0.36 0.36,-0.36 0.24,0 0.36,0.12 0.36,0.36 z"
       style="fill:#000000;fill-opacity:1;fill-rule:nonzero;stroke:none"
       id="path5880"
       inkscape:connector-curvature="0" /><path
       d="m 258.12,428.52 c 0,0.24 -0.12,0.36 -0.36,0.36 -0.24,0 -0.36,-0.12 -0.36,-0.36 0,-0.24 0.12,-0.36 0.36,-0.36 0.24,0 0.36,0.12 0.36,0.36 z"
       style="fill:#000000;fill-opacity:1;fill-rule:nonzero;stroke:none"
       id="path5882"
       inkscape:connector-curvature="0" /><path
       d="m 258.12,429 c 0,0.24 -0.12,0.36 -0.36,0.36 -0.24,0 -0.36,-0.12 -0.36,-0.36 0,-0.24 0.12,-0.36 0.36,-0.36 0.24,0 0.36,0.12 0.36,0.36 z"
       style="fill:#000000;fill-opacity:1;fill-rule:nonzero;stroke:none"
       id="path5884"
       inkscape:connector-curvature="0" /><path
       d="m 258.12,429.48 c 0,0.24 -0.12,0.36 -0.36,0.36 -0.24,0 -0.36,-0.12 -0.36,-0.36 0,-0.24 0.12,-0.36 0.36,-0.36 0.24,0 0.36,0.12 0.36,0.36 z"
       style="fill:#000000;fill-opacity:1;fill-rule:nonzero;stroke:none"
       id="path5886"
       inkscape:connector-curvature="0" /><path
       d="m 258.12,429.96 c 0,0.24 -0.12,0.36 -0.36,0.36 -0.24,0 -0.36,-0.12 -0.36,-0.36 0,-0.24 0.12,-0.36 0.36,-0.36 0.24,0 0.36,0.12 0.36,0.36 z"
       style="fill:#000000;fill-opacity:1;fill-rule:nonzero;stroke:none"
       id="path5888"
       inkscape:connector-curvature="0" /><path
       d="m 258.12,430.44 c 0,0.24 -0.12,0.36 -0.36,0.36 -0.24,0 -0.36,-0.12 -0.36,-0.36 0,-0.24 0.12,-0.36 0.36,-0.36 0.24,0 0.36,0.12 0.36,0.36 z"
       style="fill:#000000;fill-opacity:1;fill-rule:nonzero;stroke:none"
       id="path5890"
       inkscape:connector-curvature="0" /><path
       d="m 258.12,430.92 c 0,0.24 -0.12,0.36 -0.36,0.36 -0.24,0 -0.36,-0.12 -0.36,-0.36 0,-0.24 0.12,-0.36 0.36,-0.36 0.24,0 0.36,0.12 0.36,0.36 z"
       style="fill:#000000;fill-opacity:1;fill-rule:nonzero;stroke:none"
       id="path5892"
       inkscape:connector-curvature="0" /><path
       d="m 258.12,431.4 c 0,0.24 -0.12,0.36 -0.36,0.36 -0.24,0 -0.36,-0.12 -0.36,-0.36 0,-0.24 0.12,-0.36 0.36,-0.36 0.24,0 0.36,0.12 0.36,0.36 z"
       style="fill:#000000;fill-opacity:1;fill-rule:nonzero;stroke:none"
       id="path5894"
       inkscape:connector-curvature="0" /><path
       d="m 258.12,431.88 c 0,0.24 -0.12,0.36 -0.36,0.36 -0.24,0 -0.36,-0.12 -0.36,-0.36 0,-0.24 0.12,-0.36 0.36,-0.36 0.24,0 0.36,0.12 0.36,0.36 z"
       style="fill:#000000;fill-opacity:1;fill-rule:nonzero;stroke:none"
       id="path5896"
       inkscape:connector-curvature="0" /><path
       d="m 258.12,432.36 c 0,0.24 -0.12,0.36 -0.36,0.36 -0.24,0 -0.36,-0.12 -0.36,-0.36 0,-0.24 0.12,-0.36 0.36,-0.36 0.24,0 0.36,0.12 0.36,0.36 z"
       style="fill:#000000;fill-opacity:1;fill-rule:nonzero;stroke:none"
       id="path5898"
       inkscape:connector-curvature="0" /><path
       d="m 258.12,432.84 c 0,0.24 -0.12,0.36 -0.36,0.36 -0.24,0 -0.36,-0.12 -0.36,-0.36 0,-0.24 0.12,-0.36 0.36,-0.36 0.24,0 0.36,0.12 0.36,0.36 z"
       style="fill:#000000;fill-opacity:1;fill-rule:nonzero;stroke:none"
       id="path5900"
       inkscape:connector-curvature="0" /><path
       d="m 258.12,433.32 c 0,0.24 -0.12,0.36 -0.36,0.36 -0.24,0 -0.36,-0.12 -0.36,-0.36 0,-0.24 0.12,-0.36 0.36,-0.36 0.24,0 0.36,0.12 0.36,0.36 z"
       style="fill:#000000;fill-opacity:1;fill-rule:nonzero;stroke:none"
       id="path5902"
       inkscape:connector-curvature="0" /><path
       d="m 258.12,433.8 c 0,0.24 -0.12,0.36 -0.36,0.36 -0.24,0 -0.36,-0.12 -0.36,-0.36 0,-0.24 0.12,-0.36 0.36,-0.36 0.24,0 0.36,0.12 0.36,0.36 z"
       style="fill:#000000;fill-opacity:1;fill-rule:nonzero;stroke:none"
       id="path5904"
       inkscape:connector-curvature="0" /><path
       d="m 258.12,434.28 c 0,0.24 -0.12,0.36 -0.36,0.36 -0.24,0 -0.36,-0.12 -0.36,-0.36 0,-0.24 0.12,-0.36 0.36,-0.36 0.24,0 0.36,0.12 0.36,0.36 z"
       style="fill:#000000;fill-opacity:1;fill-rule:nonzero;stroke:none"
       id="path5906"
       inkscape:connector-curvature="0" /><path
       d="m 258.12,434.76 c 0,0.24 -0.12,0.36 -0.36,0.36 -0.24,0 -0.36,-0.12 -0.36,-0.36 0,-0.24 0.12,-0.36 0.36,-0.36 0.24,0 0.36,0.12 0.36,0.36 z"
       style="fill:#000000;fill-opacity:1;fill-rule:nonzero;stroke:none"
       id="path5908"
       inkscape:connector-curvature="0" /><path
       d="m 258.12,435.24 c 0,0.24 -0.12,0.36 -0.36,0.36 -0.24,0 -0.36,-0.12 -0.36,-0.36 0,-0.24 0.12,-0.36 0.36,-0.36 0.24,0 0.36,0.12 0.36,0.36 z"
       style="fill:#000000;fill-opacity:1;fill-rule:nonzero;stroke:none"
       id="path5910"
       inkscape:connector-curvature="0" /><path
       d="m 258.12,435.24 c 0,0.24 -0.12,0.36 -0.36,0.36 -0.24,0 -0.36,-0.12 -0.36,-0.36 0,-0.24 0.12,-0.36 0.36,-0.36 0.24,0 0.36,0.12 0.36,0.36 z"
       style="fill:#000000;fill-opacity:1;fill-rule:nonzero;stroke:none"
       id="path5912"
       inkscape:connector-curvature="0" /><path
       d="m 258.12,434.76 c 0,0.24 -0.12,0.36 -0.36,0.36 -0.12,0 -0.36,-0.12 -0.36,-0.36 0,-0.24 0.24,-0.36 0.36,-0.36 0.24,0 0.36,0.12 0.36,0.36 z"
       style="fill:#000000;fill-opacity:1;fill-rule:nonzero;stroke:none"
       id="path5914"
       inkscape:connector-curvature="0" /><path
       d="m 258.24,434.28 c 0,0.24 -0.24,0.36 -0.36,0.36 -0.24,0 -0.36,-0.12 -0.36,-0.36 0,-0.24 0.12,-0.36 0.36,-0.36 0.12,0 0.36,0.12 0.36,0.36 z"
       style="fill:#000000;fill-opacity:1;fill-rule:nonzero;stroke:none"
       id="path5916"
       inkscape:connector-curvature="0" /><path
       d="m 258.24,433.8 c 0,0.24 -0.12,0.36 -0.36,0.36 -0.12,0 -0.36,-0.12 -0.36,-0.36 0,-0.12 0.24,-0.36 0.36,-0.36 0.24,0 0.36,0.24 0.36,0.36 z"
       style="fill:#000000;fill-opacity:1;fill-rule:nonzero;stroke:none"
       id="path5918"
       inkscape:connector-curvature="0" /><path
       d="m 258.36,433.32 c 0,0.24 -0.12,0.36 -0.36,0.36 -0.12,0 -0.36,-0.12 -0.36,-0.36 0,-0.12 0.24,-0.36 0.36,-0.36 0.24,0 0.36,0.24 0.36,0.36 z"
       style="fill:#000000;fill-opacity:1;fill-rule:nonzero;stroke:none"
       id="path5920"
       inkscape:connector-curvature="0" /><path
       d="m 258.48,432.96 c 0,0.12 -0.12,0.36 -0.36,0.36 -0.24,0 -0.36,-0.24 -0.36,-0.36 0,-0.24 0.12,-0.36 0.36,-0.36 0.24,0 0.36,0.12 0.36,0.36 z"
       style="fill:#000000;fill-opacity:1;fill-rule:nonzero;stroke:none"
       id="path5922"
       inkscape:connector-curvature="0" /><path
       d="m 258.6,432.48 c 0,0.12 -0.12,0.36 -0.36,0.36 -0.24,0 -0.36,-0.24 -0.36,-0.36 0,-0.24 0.12,-0.36 0.36,-0.36 0.24,0 0.36,0.12 0.36,0.36 z"
       style="fill:#000000;fill-opacity:1;fill-rule:nonzero;stroke:none"
       id="path5924"
       inkscape:connector-curvature="0" /><path
       d="m 258.72,432 c 0,0.24 -0.12,0.36 -0.36,0.36 -0.12,0 -0.36,-0.12 -0.36,-0.36 0,-0.24 0.24,-0.36 0.36,-0.36 0.24,0 0.36,0.12 0.36,0.36 z"
       style="fill:#000000;fill-opacity:1;fill-rule:nonzero;stroke:none"
       id="path5926"
       inkscape:connector-curvature="0" /><path
       d="m 258.84,431.52 c 0,0.24 -0.12,0.36 -0.36,0.36 -0.12,0 -0.36,-0.12 -0.36,-0.36 0,-0.12 0.24,-0.36 0.36,-0.36 0.24,0 0.36,0.24 0.36,0.36 z"
       style="fill:#000000;fill-opacity:1;fill-rule:nonzero;stroke:none"
       id="path5928"
       inkscape:connector-curvature="0" /><path
       d="m 259.08,431.16 c 0,0.12 -0.12,0.36 -0.36,0.36 -0.24,0 -0.36,-0.24 -0.36,-0.36 0,-0.24 0.12,-0.36 0.36,-0.36 0.24,0 0.36,0.12 0.36,0.36 z"
       style="fill:#000000;fill-opacity:1;fill-rule:nonzero;stroke:none"
       id="path5930"
       inkscape:connector-curvature="0" /><path
       d="m 259.2,430.68 c 0,0.24 -0.12,0.36 -0.36,0.36 -0.12,0 -0.36,-0.12 -0.36,-0.36 0,-0.24 0.24,-0.36 0.36,-0.36 0.24,0 0.36,0.12 0.36,0.36 z"
       style="fill:#000000;fill-opacity:1;fill-rule:nonzero;stroke:none"
       id="path5932"
       inkscape:connector-curvature="0" /><path
       d="m 259.44,430.2 c 0,0.24 -0.12,0.36 -0.36,0.36 -0.24,0 -0.36,-0.12 -0.36,-0.36 0,-0.12 0.12,-0.36 0.36,-0.36 0.24,0 0.36,0.24 0.36,0.36 z"
       style="fill:#000000;fill-opacity:1;fill-rule:nonzero;stroke:none"
       id="path5934"
       inkscape:connector-curvature="0" /><path
       d="m 259.68,429.84 c 0,0.24 -0.24,0.36 -0.36,0.36 -0.24,0 -0.36,-0.12 -0.36,-0.36 0,-0.24 0.12,-0.36 0.36,-0.36 0.12,0 0.36,0.12 0.36,0.36 z"
       style="fill:#000000;fill-opacity:1;fill-rule:nonzero;stroke:none"
       id="path5936"
       inkscape:connector-curvature="0" /><path
       d="m 259.8,429.36 c 0,0.24 -0.12,0.36 -0.36,0.36 -0.12,0 -0.36,-0.12 -0.36,-0.36 0,-0.12 0.24,-0.36 0.36,-0.36 0.24,0 0.36,0.24 0.36,0.36 z"
       style="fill:#000000;fill-opacity:1;fill-rule:nonzero;stroke:none"
       id="path5938"
       inkscape:connector-curvature="0" /><path
       d="m 260.04,429 c 0,0.24 -0.12,0.36 -0.36,0.36 -0.12,0 -0.36,-0.12 -0.36,-0.36 0,-0.24 0.24,-0.36 0.36,-0.36 0.24,0 0.36,0.12 0.36,0.36 z"
       style="fill:#000000;fill-opacity:1;fill-rule:nonzero;stroke:none"
       id="path5940"
       inkscape:connector-curvature="0" /><path
       d="m 260.28,428.52 c 0,0.24 -0.12,0.36 -0.36,0.36 -0.12,0 -0.36,-0.12 -0.36,-0.36 0,-0.12 0.24,-0.36 0.36,-0.36 0.24,0 0.36,0.24 0.36,0.36 z"
       style="fill:#000000;fill-opacity:1;fill-rule:nonzero;stroke:none"
       id="path5942"
       inkscape:connector-curvature="0" /><path
       d="m 258.12,435.24 c 0,0.24 -0.12,0.36 -0.36,0.36 -0.24,0 -0.36,-0.12 -0.36,-0.36 0,-0.24 0.12,-0.36 0.36,-0.36 0.24,0 0.36,0.12 0.36,0.36 z"
       style="fill:#000000;fill-opacity:1;fill-rule:nonzero;stroke:none"
       id="path5944"
       inkscape:connector-curvature="0" /><path
       d="m 258.12,434.76 c 0,0.24 -0.24,0.36 -0.36,0.36 -0.24,0 -0.36,-0.12 -0.36,-0.36 0,-0.24 0.12,-0.36 0.36,-0.36 0.12,0 0.36,0.12 0.36,0.36 z"
       style="fill:#000000;fill-opacity:1;fill-rule:nonzero;stroke:none"
       id="path5946"
       inkscape:connector-curvature="0" /><path
       d="m 258,434.28 c 0,0.24 -0.12,0.36 -0.36,0.36 -0.12,0 -0.36,-0.12 -0.36,-0.36 0,-0.24 0.24,-0.36 0.36,-0.36 0.24,0 0.36,0.12 0.36,0.36 z"
       style="fill:#000000;fill-opacity:1;fill-rule:nonzero;stroke:none"
       id="path5948"
       inkscape:connector-curvature="0" /><path
       d="m 258,433.8 c 0,0.24 -0.24,0.36 -0.36,0.36 -0.24,0 -0.36,-0.12 -0.36,-0.36 0,-0.24 0.12,-0.36 0.36,-0.36 0.12,0 0.36,0.12 0.36,0.36 z"
       style="fill:#000000;fill-opacity:1;fill-rule:nonzero;stroke:none"
       id="path5950"
       inkscape:connector-curvature="0" /><path
       d="m 257.88,433.32 c 0,0.24 -0.24,0.36 -0.36,0.36 -0.24,0 -0.36,-0.12 -0.36,-0.36 0,-0.12 0.12,-0.36 0.36,-0.36 0.12,0 0.36,0.24 0.36,0.36 z"
       style="fill:#000000;fill-opacity:1;fill-rule:nonzero;stroke:none"
       id="path5952"
       inkscape:connector-curvature="0" /><path
       d="m 257.76,432.96 c 0,0.12 -0.12,0.36 -0.36,0.36 -0.24,0 -0.36,-0.24 -0.36,-0.36 0,-0.24 0.12,-0.36 0.36,-0.36 0.24,0 0.36,0.12 0.36,0.36 z"
       style="fill:#000000;fill-opacity:1;fill-rule:nonzero;stroke:none"
       id="path5954"
       inkscape:connector-curvature="0" /><path
       d="m 257.64,432.48 c 0,0.12 -0.12,0.36 -0.36,0.36 -0.24,0 -0.36,-0.24 -0.36,-0.36 0,-0.24 0.12,-0.36 0.36,-0.36 0.24,0 0.36,0.12 0.36,0.36 z"
       style="fill:#000000;fill-opacity:1;fill-rule:nonzero;stroke:none"
       id="path5956"
       inkscape:connector-curvature="0" /><path
       d="m 257.52,432 c 0,0.24 -0.24,0.36 -0.36,0.36 -0.24,0 -0.36,-0.12 -0.36,-0.36 0,-0.24 0.12,-0.36 0.36,-0.36 0.12,0 0.36,0.12 0.36,0.36 z"
       style="fill:#000000;fill-opacity:1;fill-rule:nonzero;stroke:none"
       id="path5958"
       inkscape:connector-curvature="0" /><path
       d="m 257.28,431.52 c 0,0.24 -0.12,0.36 -0.36,0.36 -0.12,0 -0.36,-0.12 -0.36,-0.36 0,-0.12 0.24,-0.36 0.36,-0.36 0.24,0 0.36,0.24 0.36,0.36 z"
       style="fill:#000000;fill-opacity:1;fill-rule:nonzero;stroke:none"
       id="path5960"
       inkscape:connector-curvature="0" /><path
       d="m 257.16,431.16 c 0,0.12 -0.12,0.36 -0.36,0.36 -0.24,0 -0.36,-0.24 -0.36,-0.36 0,-0.24 0.12,-0.36 0.36,-0.36 0.24,0 0.36,0.12 0.36,0.36 z"
       style="fill:#000000;fill-opacity:1;fill-rule:nonzero;stroke:none"
       id="path5962"
       inkscape:connector-curvature="0" /><path
       d="m 257.04,430.68 c 0,0.24 -0.24,0.36 -0.36,0.36 -0.24,0 -0.36,-0.12 -0.36,-0.36 0,-0.24 0.12,-0.36 0.36,-0.36 0.12,0 0.36,0.12 0.36,0.36 z"
       style="fill:#000000;fill-opacity:1;fill-rule:nonzero;stroke:none"
       id="path5964"
       inkscape:connector-curvature="0" /><path
       d="m 256.8,430.2 c 0,0.24 -0.12,0.36 -0.36,0.36 -0.24,0 -0.36,-0.12 -0.36,-0.36 0,-0.12 0.12,-0.36 0.36,-0.36 0.24,0 0.36,0.24 0.36,0.36 z"
       style="fill:#000000;fill-opacity:1;fill-rule:nonzero;stroke:none"
       id="path5966"
       inkscape:connector-curvature="0" /><path
       d="m 256.56,429.84 c 0,0.24 -0.12,0.36 -0.36,0.36 -0.12,0 -0.36,-0.12 -0.36,-0.36 0,-0.24 0.24,-0.36 0.36,-0.36 0.24,0 0.36,0.12 0.36,0.36 z"
       style="fill:#000000;fill-opacity:1;fill-rule:nonzero;stroke:none"
       id="path5968"
       inkscape:connector-curvature="0" /><path
       d="m 256.32,429.36 c 0,0.24 -0.12,0.36 -0.36,0.36 -0.12,0 -0.36,-0.12 -0.36,-0.36 0,-0.12 0.24,-0.36 0.36,-0.36 0.24,0 0.36,0.24 0.36,0.36 z"
       style="fill:#000000;fill-opacity:1;fill-rule:nonzero;stroke:none"
       id="path5970"
       inkscape:connector-curvature="0" /><path
       d="m 256.2,429 c 0,0.24 -0.24,0.36 -0.36,0.36 -0.24,0 -0.36,-0.12 -0.36,-0.36 0,-0.24 0.12,-0.36 0.36,-0.36 0.12,0 0.36,0.12 0.36,0.36 z"
       style="fill:#000000;fill-opacity:1;fill-rule:nonzero;stroke:none"
       id="path5972"
       inkscape:connector-curvature="0" /><path
       d="m 255.96,428.52 c 0,0.24 -0.24,0.36 -0.36,0.36 -0.24,0 -0.36,-0.12 -0.36,-0.36 0,-0.12 0.12,-0.36 0.36,-0.36 0.12,0 0.36,0.24 0.36,0.36 z"
       style="fill:#000000;fill-opacity:1;fill-rule:nonzero;stroke:none"
       id="path5974"
       inkscape:connector-curvature="0" /><path
       d="m 371.52,347.88 c -0.12,-0.24 -0.36,-0.72 -0.84,-0.72 0,0 -0.24,0 -0.36,0.12 0.24,0.12 0.36,0.48 0.36,0.48 0,0.12 -0.24,0.36 -0.36,0.36 -0.24,0 -0.48,-0.24 -0.48,-0.6 0,-0.36 0.48,-0.6 0.84,-0.6 0.36,0 0.72,0.24 0.96,0.6 0.24,-0.36 0.6,-0.6 0.96,-0.6 0.96,0 1.44,1.08 1.44,1.32 0,0.12 -0.12,0.12 -0.12,0.12 -0.12,0 -0.12,-0.12 -0.12,-0.12 -0.24,-0.6 -0.72,-1.08 -1.2,-1.08 -0.24,0 -0.48,0.24 -0.48,0.6 0,0.12 0.24,0.96 0.48,1.8 0.12,0.72 0.48,0.84 0.72,0.84 0.12,0 0.36,0 0.48,-0.12 -0.24,0 -0.36,-0.24 -0.36,-0.36 0,-0.24 0.12,-0.36 0.36,-0.36 0.24,0 0.48,0.12 0.48,0.48 0,0.48 -0.6,0.6 -0.84,0.6 -0.48,0 -0.84,-0.24 -0.96,-0.6 -0.12,0.36 -0.48,0.6 -0.96,0.6 -0.96,0 -1.44,-0.96 -1.44,-1.2 0,-0.12 0,-0.12 0.12,-0.12 0.12,0 0.12,0 0.12,0.12 0.24,0.6 0.72,0.96 1.08,0.96 0.36,0 0.6,-0.12 0.6,-0.48 0,-0.24 -0.12,-0.6 -0.24,-0.84 l -0.24,-1.2 z"
       style="fill:#000000;fill-opacity:1;fill-rule:nonzero;stroke:none"
       id="path5976"
       inkscape:connector-curvature="0" /><path
       d="m 261.84,443.64 c 0,0.12 0,0.12 0,0.24 0,0.12 -0.12,0.24 -0.24,0.24 -0.12,0 -0.24,0 -0.36,-0.24 0,0 -0.12,-0.24 -0.12,-0.48 l -0.24,-0.6 c 0,-0.24 -0.24,-1.32 -0.24,-1.44 0,0 -0.48,-0.72 -1.08,-0.72 -0.6,0 -0.6,0.6 -0.6,0.72 0,0.48 0.24,0.96 0.48,1.68 0.12,0.24 0.12,0.36 0.12,0.48 0,0.36 -0.36,0.72 -0.72,0.72 -0.84,0 -1.2,-1.2 -1.2,-1.32 0,-0.12 0.12,-0.12 0.12,-0.12 0.12,0 0.12,0 0.12,0.12 0.24,0.72 0.6,1.08 0.84,1.08 0.24,0 0.24,-0.12 0.24,-0.36 0,-0.12 0,-0.36 -0.12,-0.48 -0.36,-0.96 -0.48,-1.32 -0.48,-1.68 0,-0.12 0,-0.48 0.36,-0.72 0.24,-0.24 0.6,-0.24 0.84,-0.24 0.36,0 0.6,0.12 0.84,0.36 -0.12,-0.48 -0.12,-0.84 -0.48,-1.32 -0.24,-0.24 -0.6,-0.48 -0.96,-0.48 -0.12,0 -0.48,0 -0.72,0.24 0.48,0.12 0.48,0.48 0.48,0.48 0,0.24 -0.24,0.36 -0.36,0.36 -0.12,0 -0.48,-0.24 -0.48,-0.6 0,-0.36 0.48,-0.72 1.08,-0.72 0.84,0 1.8,0.72 2.04,1.68 l 0.84,3.12 z"
       style="fill:#000000;fill-opacity:1;fill-rule:nonzero;stroke:none"
       id="path5978"
       inkscape:connector-curvature="0" /><path
       d="m 260.04,348.24 c 0,1.32 -1.08,2.28 -2.28,2.28 -1.32,0 -2.28,-1.08 -2.28,-2.28 0,-1.32 1.08,-2.28 2.28,-2.28 1.32,0 2.28,1.08 2.28,2.28 z"
       style="fill:#000000;fill-opacity:1;fill-rule:nonzero;stroke:none"
       id="path5980"
       inkscape:connector-curvature="0" /><path
       d="m 258.17433,344.19378 c 0,0.0945 0,0.18896 -0.18896,0.18896 -0.37792,-0.4724 -1.03928,-0.4724 -1.22824,-0.4724 l 0,-0.18896 c 0.0945,0 0.56688,0 0.9448,0.18896 l 0,-3.40129 c 0,-0.18896 0,-0.28344 -0.66136,-0.28344 l -0.28344,0 0,-0.18896 c 0.0945,0 0.9448,0 1.13376,0 0.18896,0 1.03928,0 1.22824,0 l 0,0.18896 -0.28344,0 c -0.66136,0 -0.66136,0.0945 -0.66136,0.28344 l 0,3.68473 z"
       style="fill:#000000;fill-opacity:1;fill-rule:nonzero;stroke:none"
       id="path6004"
       inkscape:connector-curvature="0" /><path
       inkscape:connector-curvature="0"
       id="path7605"
       style="fill:#000000;fill-opacity:1;fill-rule:nonzero;stroke:none"
       d="m 286.92,348.24 c 0,1.32 -1.08,2.28 -2.28,2.28 -1.32,0 -2.28,-1.08 -2.28,-2.28 0,-1.32 1.08,-2.28 2.28,-2.28 1.32,0 2.28,1.08 2.28,2.28 z" /><path
       inkscape:connector-curvature="0"
       id="path7607"
       style="fill:#000000;fill-opacity:1;fill-rule:nonzero;stroke:none"
       d="m 260.04,375.12 c 0,1.2 -1.08,2.28 -2.28,2.28 -1.32,0 -2.28,-1.08 -2.28,-2.28 0,-1.32 1.08,-2.28 2.28,-2.28 1.32,0 2.28,1.08 2.28,2.28 z" /><path
       d="m 286.86,375.12 c 0,1.2 -1.08,2.28 -2.28,2.28 -1.32,0 -2.28,-1.08 -2.28,-2.28 0,-1.32 1.08,-2.28 2.28,-2.28 1.32,0 2.28,1.08 2.28,2.28 z"
       style="fill:#000000;fill-opacity:1;fill-rule:nonzero;stroke:none"
       id="path5988"
       inkscape:connector-curvature="0" /><path
       d="m 313.8,348.24 c 0,1.32 -1.08,2.28 -2.28,2.28 -1.32,0 -2.28,-1.08 -2.28,-2.28 0,-1.32 1.08,-2.28 2.28,-2.28 1.32,0 2.28,1.08 2.28,2.28 z"
       style="fill:none;fill-opacity:1;fill-rule:nonzero;stroke:#000000;stroke-opacity:1"
       id="path7624"
       inkscape:connector-curvature="0" /><path
       inkscape:connector-curvature="0"
       id="path7628"
       style="fill:none;fill-opacity:1;fill-rule:nonzero;stroke:#000000;stroke-opacity:1"
       d="m 313.8,375.12 c 0,1.2 -1.08,2.28 -2.28,2.28 -1.32,0 -2.28,-1.08 -2.28,-2.28 0,-1.32 1.08,-2.28 2.28,-2.28 1.32,0 2.28,1.08 2.28,2.28 z" /><path
       inkscape:connector-curvature="0"
       id="path7646"
       style="fill:none;fill-opacity:1;fill-rule:nonzero;stroke:#000000;stroke-opacity:1"
       d="m 286.86,401.7 c 0,1.2 -1.08,2.28 -2.28,2.28 -1.32,0 -2.28,-1.08 -2.28,-2.28 0,-1.32 1.08,-2.28 2.28,-2.28 1.32,0 2.28,1.08 2.28,2.28 z" /><path
       d="m 260.04,401.7 c 0,1.2 -1.08,2.28 -2.28,2.28 -1.32,0 -2.28,-1.08 -2.28,-2.28 0,-1.32 1.08,-2.28 2.28,-2.28 1.32,0 2.28,1.08 2.28,2.28 z"
       style="fill:none;fill-opacity:1;fill-rule:nonzero;stroke:#000000;stroke-opacity:1"
       id="path7648"
       inkscape:connector-curvature="0" /><g
       id="g7992"
       transform="matrix(-0.76048541,0,0,0.76048541,557.99538,82.184152)"><g
         word-spacing="normal"
         letter-spacing="normal"
         font-size-adjust="none"
         font-stretch="normal"
         font-weight="normal"
         font-variant="normal"
         font-style="normal"
         stroke-miterlimit="10.433"
         xml:space="preserve"
         transform="matrix(1.0928571,0,0,-1.0928571,-191.25,742.5)"
         id="content"
         style="font-style:normal;font-variant:normal;font-weight:normal;font-stretch:normal;letter-spacing:normal;word-spacing:normal;text-anchor:start;fill:none;fill-opacity:1;fill-rule:evenodd;stroke:#000000;stroke-linecap:butt;stroke-linejoin:miter;stroke-miterlimit:10.43299961;stroke-dasharray:none;stroke-dashoffset:0;stroke-opacity:1"><path
           id="path7995"
           d="m 504.52336,367.46967 0.006,0.0279 0.009,0.0321 0.009,0.0343 0.009,0.0386 0.0129,0.0407 0.0129,0.045 0.0129,0.0471 0.015,0.0471 0.0171,0.0493 0.0193,0.0514 0.0214,0.0536 0.0214,0.0514 0.0236,0.0536 0.0257,0.0536 0.0278,0.0536 0.03,0.0536 0.0321,0.0514 0.0321,0.0514 0.0364,0.0493 0.0386,0.0471 0.0386,0.0471 0.0428,0.0428 0.045,0.0407 0.0471,0.0386 0.0493,0.0343 0.0536,0.03 0.0257,0.015 0.0279,0.0129 0.03,0.0107 0.0279,0.0107 0.03,0.0107 0.03,0.009 0.0321,0.006 0.0321,0.006 0.0321,0.004 0.0343,0.004 0.0343,0.002 0.0343,0 c 0.0535,0 0.30848,0 0.53127,-0.1371 -0.29777,-0.0536 -0.51199,-0.32133 -0.51199,-0.57625 0,-0.16924 0.11782,-0.37489 0.40488,-0.37489 0.23564,0 0.57625,0.19066 0.57625,0.6191 0,0.55697 -0.62981,0.70265 -0.99184,0.70265 -0.6191,0 -0.99399,-0.56555 -1.12038,-0.80976 -0.26778,0.70264 -0.84403,0.80976 -1.15037,0.80976 -1.11181,0 -1.72234,-1.37531 -1.72234,-1.64308 0,-0.10712 0.10711,-0.10712 0.13067,-0.10712 0.0836,0 0.11782,0.0236 0.1371,0.11783 0.36204,1.13109 1.06897,1.39886 1.431,1.39886 0.20352,0 0.57412,-0.0942 0.57412,-0.71335 0,-0.32991 -0.17995,-1.04755 -0.57412,-2.54067 -0.17137,-0.66195 -0.54412,-1.10967 -1.01541,-1.10967 -0.0643,0 -0.30847,0 -0.53127,0.13924 0.26778,0.0514 0.50128,0.27421 0.50128,0.57626 0,0.28706 -0.2335,0.3706 -0.39416,0.3706 -0.32134,0 -0.58911,-0.27634 -0.58911,-0.6191 0,-0.48842 0.53555,-0.70264 1.00255,-0.70264 0.70693,0 1.08825,0.74763 1.12252,0.80975 0.1264,-0.39416 0.51199,-0.80975 1.15037,-0.80975 1.1011,0 1.71164,1.3753 1.71164,1.64308 0,0.10711 -0.0964,0.10711 -0.13068,0.10711 -0.0943,0 -0.11782,-0.0428 -0.1371,-0.11568 -0.35133,-1.1418 -1.07754,-1.39887 -1.42029,-1.39887 -0.41773,0 -0.58911,0.34061 -0.58911,0.70479 0,0.23564 0.0643,0.46914 0.18423,0.93829 z"
           inkscape:connector-curvature="0"
           style="fill:#000000;stroke-width:0" /></g></g><g
       transform="matrix(0.16405924,0,0,-0.16405924,198.05506,422.77488)"
       id="g8225"><g
         style="font-style:normal;font-variant:normal;font-weight:normal;font-stretch:normal;letter-spacing:normal;word-spacing:normal;text-anchor:start;fill:none;fill-opacity:1;fill-rule:evenodd;stroke:#000000;stroke-linecap:butt;stroke-linejoin:miter;stroke-miterlimit:10.43299961;stroke-dasharray:none;stroke-dashoffset:0;stroke-opacity:1"
         id="g8227"
         transform="matrix(1.0928571,0,0,-1.0928571,-191.25,742.5)"
         xml:space="preserve"
         stroke-miterlimit="10.433"
         font-style="normal"
         font-variant="normal"
         font-weight="normal"
         font-stretch="normal"
         font-size-adjust="none"
         letter-spacing="normal"
         word-spacing="normal"><path
           style="fill:#000000;stroke-width:0"
           inkscape:connector-curvature="0"
           d="m 479.74,425.18 0.01,0.04 0.01,0.03 0.01,0.06 0.02,0.05 0.01,0.06 0.01,0.05 0.02,0.04 0.01,0.05 0.01,0.04 0.01,0.04 0,0.04 0.01,0.04 0.01,0.04 0.01,0.03 0,0.03 0.01,0.03 0,0.03 0.01,0.03 0,0.03 0.01,0.05 0,0.06 0,0.05 0,0.05 0.01,0.05 0,0.03 0,0.03 0,0.03 0,0.03 c 0,0.91 -0.69,1.35 -1.44,1.35 -0.5,0 -1.3,-0.3 -1.75,-1.05 -0.1,-0.25 -0.5,-1.78 -0.69,-2.69 -0.36,-1.29 -0.7,-2.64 -1,-3.98 l -2.25,-8.97 c -0.19,-0.75 -2.33,-4.23 -5.62,-4.23 -2.54,0 -3.1,2.18 -3.1,4.03 0,2.29 0.86,5.39 2.55,9.76 0.8,2.05 1,2.6 1,3.6 0,2.23 -1.59,4.07 -4.09,4.07 -4.74,0 -6.58,-7.21 -6.58,-7.67 0,-0.5 0.5,-0.5 0.61,-0.5 0.5,0 0.54,0.11 0.79,0.91 1.35,4.69 3.33,6.17 5.03,6.17 0.4,0 1.25,0 1.25,-1.59 0,-1.25 -0.5,-2.53 -0.85,-3.49 -1.99,-5.28 -2.9,-8.12 -2.9,-10.47 0,-4.42 3.15,-5.92 6.08,-5.92 1.96,0 3.64,0.85 5.03,2.24 -0.64,-2.58 -1.23,-5.03 -3.23,-7.68 -1.3,-1.68 -3.19,-3.14 -5.48,-3.14 -0.69,0 -2.94,0.16 -3.79,2.1 0.8,0 1.46,0 2.14,0.61 0.5,0.43 1,1.09 1,2.03 0,1.55 -1.34,1.75 -1.84,1.75 -1.14,0 -2.8,-0.8 -2.8,-3.24 0,-2.5 2.21,-4.34 5.29,-4.34 5.14,0 10.26,4.55 11.67,10.17 z"
           id="path8229" /></g></g><g
       id="g8465"
       transform="matrix(0.16866092,0,0,-0.16866092,219.58428,424.51051)"><g
         word-spacing="normal"
         letter-spacing="normal"
         font-size-adjust="none"
         font-stretch="normal"
         font-weight="normal"
         font-variant="normal"
         font-style="normal"
         stroke-miterlimit="10.433"
         xml:space="preserve"
         transform="matrix(1.0928571,0,0,-1.0928571,-191.25,742.5)"
         id="g8467"
         style="font-style:normal;font-variant:normal;font-weight:normal;font-stretch:normal;letter-spacing:normal;word-spacing:normal;text-anchor:start;fill:none;fill-opacity:1;fill-rule:evenodd;stroke:#000000;stroke-linecap:butt;stroke-linejoin:miter;stroke-miterlimit:10.43299961;stroke-dasharray:none;stroke-dashoffset:0;stroke-opacity:1"><path
           id="path8469"
           d="m 472.16,421.25 0.03,0.13 0.04,0.15 0.04,0.16 0.04,0.18 0.06,0.19 0.06,0.21 0.06,0.22 0.07,0.22 0.08,0.23 0.09,0.24 0.1,0.25 0.1,0.24 0.11,0.25 0.12,0.25 0.13,0.25 0.14,0.25 0.15,0.24 0.15,0.24 0.17,0.23 0.18,0.22 0.18,0.22 0.2,0.2 0.21,0.19 0.22,0.18 0.23,0.16 0.25,0.14 0.12,0.07 0.13,0.06 0.14,0.05 0.13,0.05 0.14,0.05 0.14,0.04 0.15,0.03 0.15,0.03 0.15,0.02 0.16,0.02 0.16,0.01 0.16,0 c 0.25,0 1.44,0 2.48,-0.64 -1.39,-0.25 -2.39,-1.5 -2.39,-2.69 0,-0.79 0.55,-1.75 1.89,-1.75 1.1,0 2.69,0.89 2.69,2.89 0,2.6 -2.94,3.28 -4.63,3.28 -2.89,0 -4.64,-2.64 -5.23,-3.78 -1.25,3.28 -3.94,3.78 -5.37,3.78 -5.19,0 -8.04,-6.42 -8.04,-7.67 0,-0.5 0.5,-0.5 0.61,-0.5 0.39,0 0.55,0.11 0.64,0.55 1.69,5.28 4.99,6.53 6.68,6.53 0.95,0 2.68,-0.44 2.68,-3.33 0,-1.54 -0.84,-4.89 -2.68,-11.86 -0.8,-3.09 -2.54,-5.18 -4.74,-5.18 -0.3,0 -1.44,0 -2.48,0.65 1.25,0.24 2.34,1.28 2.34,2.69 0,1.34 -1.09,1.73 -1.84,1.73 -1.5,0 -2.75,-1.29 -2.75,-2.89 0,-2.28 2.5,-3.28 4.68,-3.28 3.3,0 5.08,3.49 5.24,3.78 0.59,-1.84 2.39,-3.78 5.37,-3.78 5.14,0 7.99,6.42 7.99,7.67 0,0.5 -0.45,0.5 -0.61,0.5 -0.44,0 -0.55,-0.2 -0.64,-0.54 -1.64,-5.33 -5.03,-6.53 -6.63,-6.53 -1.95,0 -2.75,1.59 -2.75,3.29 0,1.1 0.3,2.19 0.86,4.38 z"
           inkscape:connector-curvature="0"
           style="fill:#000000;stroke-width:0" /><path
           id="path8471"
           d="m 508.18,425.18 0,0.04 0.01,0.03 0.02,0.06 0.01,0.05 0.02,0.06 0.01,0.05 0.01,0.04 0.01,0.05 0.01,0.04 0.01,0.04 0.01,0.04 0.01,0.04 0.01,0.04 0,0.03 0.01,0.03 0,0.03 0.01,0.03 0,0.03 0.01,0.03 0,0.05 0.01,0.06 0,0.05 0,0.05 0,0.05 0,0.03 0,0.03 0,0.03 0,0.03 c 0,0.91 -0.68,1.35 -1.43,1.35 -0.5,0 -1.3,-0.3 -1.75,-1.05 -0.1,-0.25 -0.5,-1.78 -0.69,-2.69 -0.36,-1.29 -0.7,-2.64 -1,-3.98 l -2.25,-8.97 c -0.19,-0.75 -2.33,-4.23 -5.63,-4.23 -2.53,0 -3.09,2.18 -3.09,4.03 0,2.29 0.86,5.39 2.55,9.76 0.79,2.05 1,2.6 1,3.6 0,2.23 -1.6,4.07 -4.1,4.07 -4.73,0 -6.58,-7.21 -6.58,-7.67 0,-0.5 0.5,-0.5 0.61,-0.5 0.5,0 0.55,0.11 0.8,0.91 1.34,4.69 3.33,6.17 5.03,6.17 0.39,0 1.25,0 1.25,-1.59 0,-1.25 -0.5,-2.53 -0.86,-3.49 -1.98,-5.28 -2.89,-8.12 -2.89,-10.47 0,-4.42 3.14,-5.92 6.08,-5.92 1.95,0 3.64,0.85 5.03,2.24 -0.64,-2.58 -1.23,-5.03 -3.23,-7.68 -1.3,-1.68 -3.19,-3.14 -5.49,-3.14 -0.68,0 -2.93,0.16 -3.78,2.1 0.8,0 1.45,0 2.14,0.61 0.5,0.43 1,1.09 1,2.03 0,1.55 -1.34,1.75 -1.84,1.75 -1.14,0 -2.8,-0.8 -2.8,-3.24 0,-2.5 2.2,-4.34 5.28,-4.34 5.14,0 10.27,4.55 11.67,10.17 z"
           inkscape:connector-curvature="0"
           style="fill:#000000;stroke-width:0" /></g></g><path
       style="fill:#000000;fill-rule:evenodd;stroke:#0a00f3;stroke-width:0.8;stroke-linecap:butt;stroke-linejoin:miter;stroke-opacity:1;stroke-miterlimit:4;stroke-dasharray:3.2,0.8;stroke-dashoffset:0"
       d="m 260.02174,401.7 22.01087,0"
       id="path8593"
       inkscape:connector-curvature="0" /><path
       style="fill:#000000;fill-rule:evenodd;stroke:#0a00ee;stroke-width:0.8;stroke-linecap:butt;stroke-linejoin:miter;stroke-opacity:1;stroke-miterlimit:4;stroke-dasharray:3.2,0.8;stroke-dashoffset:0"
       d="m 311.52,372.96196 0,-22.01087"
       id="path8593-8"
       inkscape:connector-curvature="0" /><path
       style="fill:none;fill-rule:evenodd;stroke:#ee0000;stroke-width:0.8;stroke-linecap:butt;stroke-linejoin:miter;stroke-opacity:1;stroke-miterlimit:4;stroke-dasharray:3.2,0.8;stroke-dashoffset:0"
       d="m 286.43478,400.1087 23.47826,-23.08696"
       id="path8610"
       inkscape:connector-curvature="0" /><g
       transform="matrix(0.13660432,0,0,-0.13660432,267.23086,380.78478)"
       id="g8737"><g
         style="font-style:normal;font-variant:normal;font-weight:normal;font-stretch:normal;letter-spacing:normal;word-spacing:normal;text-anchor:start;fill:none;fill-opacity:1;fill-rule:evenodd;stroke:#000000;stroke-linecap:butt;stroke-linejoin:miter;stroke-miterlimit:10.43299961;stroke-dasharray:none;stroke-dashoffset:0;stroke-opacity:1"
         id="g8739"
         transform="matrix(1.0928571,0,0,-1.0928571,-191.25,742.5)"
         xml:space="preserve"
         stroke-miterlimit="10.433"
         font-style="normal"
         font-variant="normal"
         font-weight="normal"
         font-stretch="normal"
         font-size-adjust="none"
         letter-spacing="normal"
         word-spacing="normal"><path
           style="fill:#000000;stroke-width:0"
           inkscape:connector-curvature="0"
           d="m 472.16,421.25 0.03,0.13 0.04,0.15 0.04,0.16 0.04,0.18 0.06,0.19 0.06,0.21 0.06,0.22 0.07,0.22 0.08,0.23 0.09,0.24 0.1,0.25 0.1,0.24 0.11,0.25 0.12,0.25 0.13,0.25 0.14,0.25 0.15,0.24 0.15,0.24 0.17,0.23 0.18,0.22 0.18,0.22 0.2,0.2 0.21,0.19 0.22,0.18 0.23,0.16 0.25,0.14 0.12,0.07 0.13,0.06 0.14,0.05 0.13,0.05 0.14,0.05 0.14,0.04 0.15,0.03 0.15,0.03 0.15,0.02 0.16,0.02 0.16,0.01 0.16,0 c 0.25,0 1.44,0 2.48,-0.64 -1.39,-0.25 -2.39,-1.5 -2.39,-2.69 0,-0.79 0.55,-1.75 1.89,-1.75 1.1,0 2.69,0.89 2.69,2.89 0,2.6 -2.94,3.28 -4.63,3.28 -2.89,0 -4.64,-2.64 -5.23,-3.78 -1.25,3.28 -3.94,3.78 -5.37,3.78 -5.19,0 -8.04,-6.42 -8.04,-7.67 0,-0.5 0.5,-0.5 0.61,-0.5 0.39,0 0.55,0.11 0.64,0.55 1.69,5.28 4.99,6.53 6.68,6.53 0.95,0 2.68,-0.44 2.68,-3.33 0,-1.54 -0.84,-4.89 -2.68,-11.86 -0.8,-3.09 -2.54,-5.18 -4.74,-5.18 -0.3,0 -1.44,0 -2.48,0.65 1.25,0.24 2.34,1.28 2.34,2.69 0,1.34 -1.09,1.73 -1.84,1.73 -1.5,0 -2.75,-1.29 -2.75,-2.89 0,-2.28 2.5,-3.28 4.68,-3.28 3.3,0 5.08,3.49 5.24,3.78 0.59,-1.84 2.39,-3.78 5.37,-3.78 5.14,0 7.99,6.42 7.99,7.67 0,0.5 -0.45,0.5 -0.61,0.5 -0.44,0 -0.55,-0.2 -0.64,-0.54 -1.64,-5.33 -5.03,-6.53 -6.63,-6.53 -1.95,0 -2.75,1.59 -2.75,3.29 0,1.1 0.3,2.19 0.86,4.38 z"
           id="path8741" /><path
           style="fill:#000000;stroke-width:0"
           inkscape:connector-curvature="0"
           d="m 501.55,430.54 -1.18,0 c -0.1,-0.76 -0.46,-2.83 -0.91,-3.17 -0.26,-0.2 -2.95,-0.2 -3.44,-0.2 l -6.42,0 c 3.66,3.23 4.88,4.2 6.97,5.84 2.58,2.06 4.98,4.22 4.98,7.53 0,4.22 -3.68,6.8 -8.15,6.8 -4.31,0 -7.25,-3.03 -7.25,-6.23 0,-1.79 1.5,-1.96 1.86,-1.96 0.83,0 1.84,0.6 1.84,1.85 0,0.62 -0.25,1.84 -2.06,1.84 1.08,2.47 3.45,3.23 5.09,3.23 3.49,0 5.3,-2.7 5.3,-5.53 0,-3.03 -2.16,-5.43 -3.28,-6.68 l -8.39,-8.3 c -0.36,-0.31 -0.36,-0.39 -0.36,-1.36 l 14.36,0 z"
           id="path8743" /></g></g><g
       id="g9001"
       transform="matrix(0.14764507,0,0,-0.14764507,202.38737,445.41373)"><g
         word-spacing="normal"
         letter-spacing="normal"
         font-size-adjust="none"
         font-stretch="normal"
         font-weight="normal"
         font-variant="normal"
         font-style="normal"
         stroke-miterlimit="10.433"
         xml:space="preserve"
         transform="matrix(1.0928571,0,0,-1.0928571,-191.25,742.5)"
         id="g9003"
         style="font-style:normal;font-variant:normal;font-weight:normal;font-stretch:normal;letter-spacing:normal;word-spacing:normal;text-anchor:start;fill:none;fill-opacity:1;fill-rule:evenodd;stroke:#000000;stroke-linecap:butt;stroke-linejoin:miter;stroke-miterlimit:10.43299961;stroke-dasharray:none;stroke-dashoffset:0;stroke-opacity:1"><path
           id="path9005"
           d="m 479.74,425.18 0.01,0.04 0.01,0.03 0.01,0.06 0.02,0.05 0.01,0.06 0.01,0.05 0.02,0.04 0.01,0.05 0.01,0.04 0.01,0.04 0,0.04 0.01,0.04 0.01,0.04 0.01,0.03 0,0.03 0.01,0.03 0,0.03 0.01,0.03 0,0.03 0.01,0.05 0,0.06 0,0.05 0,0.05 0.01,0.05 0,0.03 0,0.03 0,0.03 0,0.03 c 0,0.91 -0.69,1.35 -1.44,1.35 -0.5,0 -1.3,-0.3 -1.75,-1.05 -0.1,-0.25 -0.5,-1.78 -0.69,-2.69 -0.36,-1.29 -0.7,-2.64 -1,-3.98 l -2.25,-8.97 c -0.19,-0.75 -2.33,-4.23 -5.62,-4.23 -2.54,0 -3.1,2.18 -3.1,4.03 0,2.29 0.86,5.39 2.55,9.76 0.8,2.05 1,2.6 1,3.6 0,2.23 -1.59,4.07 -4.09,4.07 -4.74,0 -6.58,-7.21 -6.58,-7.67 0,-0.5 0.5,-0.5 0.61,-0.5 0.5,0 0.54,0.11 0.79,0.91 1.35,4.69 3.33,6.17 5.03,6.17 0.4,0 1.25,0 1.25,-1.59 0,-1.25 -0.5,-2.53 -0.85,-3.49 -1.99,-5.28 -2.9,-8.12 -2.9,-10.47 0,-4.42 3.15,-5.92 6.08,-5.92 1.96,0 3.64,0.85 5.03,2.24 -0.64,-2.58 -1.23,-5.03 -3.23,-7.68 -1.3,-1.68 -3.19,-3.14 -5.48,-3.14 -0.69,0 -2.94,0.16 -3.79,2.1 0.8,0 1.46,0 2.14,0.61 0.5,0.43 1,1.09 1,2.03 0,1.55 -1.34,1.75 -1.84,1.75 -1.14,0 -2.8,-0.8 -2.8,-3.24 0,-2.5 2.21,-4.34 5.29,-4.34 5.14,0 10.26,4.55 11.67,10.17 z"
           inkscape:connector-curvature="0"
           style="fill:#000000;stroke-width:0" /><path
           id="path9007"
           d="m 499.39,430.54 -1.18,0 c -0.1,-0.76 -0.46,-2.83 -0.91,-3.17 -0.26,-0.2 -2.95,-0.2 -3.44,-0.2 l -6.42,0 c 3.66,3.23 4.88,4.2 6.97,5.84 2.58,2.06 4.98,4.22 4.98,7.53 0,4.22 -3.68,6.8 -8.15,6.8 -4.31,0 -7.25,-3.03 -7.25,-6.23 0,-1.79 1.5,-1.96 1.86,-1.96 0.83,0 1.84,0.6 1.84,1.85 0,0.62 -0.25,1.84 -2.06,1.84 1.08,2.47 3.45,3.23 5.09,3.23 3.49,0 5.3,-2.7 5.3,-5.53 0,-3.03 -2.16,-5.43 -3.28,-6.68 l -8.39,-8.3 c -0.36,-0.31 -0.36,-0.39 -0.36,-1.36 l 14.36,0 z"
           inkscape:connector-curvature="0"
           style="fill:#000000;stroke-width:0" /></g></g><g
       transform="matrix(0.15331548,0,0,-0.15331548,233.34499,454.28665)"
       id="g9273"><g
         style="font-style:normal;font-variant:normal;font-weight:normal;font-stretch:normal;letter-spacing:normal;word-spacing:normal;text-anchor:start;fill:none;fill-opacity:1;fill-rule:evenodd;stroke:#000000;stroke-linecap:butt;stroke-linejoin:miter;stroke-miterlimit:10.43299961;stroke-dasharray:none;stroke-dashoffset:0;stroke-opacity:1"
         id="g9275"
         transform="matrix(1.0928571,0,0,-1.0928571,-191.25,742.5)"
         xml:space="preserve"
         stroke-miterlimit="10.433"
         font-style="normal"
         font-variant="normal"
         font-weight="normal"
         font-stretch="normal"
         font-size-adjust="none"
         letter-spacing="normal"
         word-spacing="normal"><path
           style="fill:#000000;stroke-width:0"
           inkscape:connector-curvature="0"
           d="m 472.16,421.25 0.03,0.13 0.04,0.15 0.04,0.16 0.04,0.18 0.06,0.19 0.06,0.21 0.06,0.22 0.07,0.22 0.08,0.23 0.09,0.24 0.1,0.25 0.1,0.24 0.11,0.25 0.12,0.25 0.13,0.25 0.14,0.25 0.15,0.24 0.15,0.24 0.17,0.23 0.18,0.22 0.18,0.22 0.2,0.2 0.21,0.19 0.22,0.18 0.23,0.16 0.25,0.14 0.12,0.07 0.13,0.06 0.14,0.05 0.13,0.05 0.14,0.05 0.14,0.04 0.15,0.03 0.15,0.03 0.15,0.02 0.16,0.02 0.16,0.01 0.16,0 c 0.25,0 1.44,0 2.48,-0.64 -1.39,-0.25 -2.39,-1.5 -2.39,-2.69 0,-0.79 0.55,-1.75 1.89,-1.75 1.1,0 2.69,0.89 2.69,2.89 0,2.6 -2.94,3.28 -4.63,3.28 -2.89,0 -4.64,-2.64 -5.23,-3.78 -1.25,3.28 -3.94,3.78 -5.37,3.78 -5.19,0 -8.04,-6.42 -8.04,-7.67 0,-0.5 0.5,-0.5 0.61,-0.5 0.39,0 0.55,0.11 0.64,0.55 1.69,5.28 4.99,6.53 6.68,6.53 0.95,0 2.68,-0.44 2.68,-3.33 0,-1.54 -0.84,-4.89 -2.68,-11.86 -0.8,-3.09 -2.54,-5.18 -4.74,-5.18 -0.3,0 -1.44,0 -2.48,0.65 1.25,0.24 2.34,1.28 2.34,2.69 0,1.34 -1.09,1.73 -1.84,1.73 -1.5,0 -2.75,-1.29 -2.75,-2.89 0,-2.28 2.5,-3.28 4.68,-3.28 3.3,0 5.08,3.49 5.24,3.78 0.59,-1.84 2.39,-3.78 5.37,-3.78 5.14,0 7.99,6.42 7.99,7.67 0,0.5 -0.45,0.5 -0.61,0.5 -0.44,0 -0.55,-0.2 -0.64,-0.54 -1.64,-5.33 -5.03,-6.53 -6.63,-6.53 -1.95,0 -2.75,1.59 -2.75,3.29 0,1.1 0.3,2.19 0.86,4.38 z"
           id="path9277" /><path
           style="fill:#000000;stroke-width:0"
           inkscape:connector-curvature="0"
           d="m 508.18,425.18 0,0.04 0.01,0.03 0.02,0.06 0.01,0.05 0.02,0.06 0.01,0.05 0.01,0.04 0.01,0.05 0.01,0.04 0.01,0.04 0.01,0.04 0.01,0.04 0.01,0.04 0,0.03 0.01,0.03 0,0.03 0.01,0.03 0,0.03 0.01,0.03 0,0.05 0.01,0.06 0,0.05 0,0.05 0,0.05 0,0.03 0,0.03 0,0.03 0,0.03 c 0,0.91 -0.68,1.35 -1.43,1.35 -0.5,0 -1.3,-0.3 -1.75,-1.05 -0.1,-0.25 -0.5,-1.78 -0.69,-2.69 -0.36,-1.29 -0.7,-2.64 -1,-3.98 l -2.25,-8.97 c -0.19,-0.75 -2.33,-4.23 -5.63,-4.23 -2.53,0 -3.09,2.18 -3.09,4.03 0,2.29 0.86,5.39 2.55,9.76 0.79,2.05 1,2.6 1,3.6 0,2.23 -1.6,4.07 -4.1,4.07 -4.73,0 -6.58,-7.21 -6.58,-7.67 0,-0.5 0.5,-0.5 0.61,-0.5 0.5,0 0.55,0.11 0.8,0.91 1.34,4.69 3.33,6.17 5.03,6.17 0.39,0 1.25,0 1.25,-1.59 0,-1.25 -0.5,-2.53 -0.86,-3.49 -1.98,-5.28 -2.89,-8.12 -2.89,-10.47 0,-4.42 3.14,-5.92 6.08,-5.92 1.95,0 3.64,0.85 5.03,2.24 -0.64,-2.58 -1.23,-5.03 -3.23,-7.68 -1.3,-1.68 -3.19,-3.14 -5.49,-3.14 -0.68,0 -2.93,0.16 -3.78,2.1 0.8,0 1.45,0 2.14,0.61 0.5,0.43 1,1.09 1,2.03 0,1.55 -1.34,1.75 -1.84,1.75 -1.14,0 -2.8,-0.8 -2.8,-3.24 0,-2.5 2.2,-4.34 5.28,-4.34 5.14,0 10.27,4.55 11.67,10.17 z"
           id="path9279" /><path
           style="fill:#000000;stroke-width:0"
           inkscape:connector-curvature="0"
           d="m 527.83,430.54 -1.18,0 c -0.1,-0.76 -0.46,-2.83 -0.91,-3.17 -0.27,-0.2 -2.96,-0.2 -3.44,-0.2 l -6.42,0 c 3.65,3.23 4.87,4.2 6.97,5.84 2.58,2.06 4.98,4.22 4.98,7.53 0,4.22 -3.68,6.8 -8.15,6.8 -4.32,0 -7.25,-3.03 -7.25,-6.23 0,-1.79 1.5,-1.96 1.85,-1.96 0.83,0 1.85,0.6 1.85,1.85 0,0.62 -0.25,1.84 -2.06,1.84 1.08,2.47 3.45,3.23 5.09,3.23 3.49,0 5.3,-2.7 5.3,-5.53 0,-3.03 -2.16,-5.43 -3.28,-6.68 l -8.4,-8.3 c -0.35,-0.31 -0.35,-0.39 -0.35,-1.36 l 14.35,0 z"
           id="path9281" /></g></g><g
       id="g9557"
       transform="matrix(0.14656153,0,0,-0.14656153,271.58891,418.13893)"><g
         word-spacing="normal"
         letter-spacing="normal"
         font-size-adjust="none"
         font-stretch="normal"
         font-weight="normal"
         font-variant="normal"
         font-style="normal"
         stroke-miterlimit="10.433"
         xml:space="preserve"
         transform="matrix(1.0928571,0,0,-1.0928571,-191.25,742.5)"
         id="g9559"
         style="font-style:normal;font-variant:normal;font-weight:normal;font-stretch:normal;letter-spacing:normal;word-spacing:normal;text-anchor:start;fill:none;fill-opacity:1;fill-rule:evenodd;stroke:#000000;stroke-linecap:butt;stroke-linejoin:miter;stroke-miterlimit:10.43299961;stroke-dasharray:none;stroke-dashoffset:0;stroke-opacity:1"><path
           id="path9561"
           d="m 472.16,421.25 0.03,0.13 0.04,0.15 0.04,0.16 0.04,0.18 0.06,0.19 0.06,0.21 0.06,0.22 0.07,0.22 0.08,0.23 0.09,0.24 0.1,0.25 0.1,0.24 0.11,0.25 0.12,0.25 0.13,0.25 0.14,0.25 0.15,0.24 0.15,0.24 0.17,0.23 0.18,0.22 0.18,0.22 0.2,0.2 0.21,0.19 0.22,0.18 0.23,0.16 0.25,0.14 0.12,0.07 0.13,0.06 0.14,0.05 0.13,0.05 0.14,0.05 0.14,0.04 0.15,0.03 0.15,0.03 0.15,0.02 0.16,0.02 0.16,0.01 0.16,0 c 0.25,0 1.44,0 2.48,-0.64 -1.39,-0.25 -2.39,-1.5 -2.39,-2.69 0,-0.79 0.55,-1.75 1.89,-1.75 1.1,0 2.69,0.89 2.69,2.89 0,2.6 -2.94,3.28 -4.63,3.28 -2.89,0 -4.64,-2.64 -5.23,-3.78 -1.25,3.28 -3.94,3.78 -5.37,3.78 -5.19,0 -8.04,-6.42 -8.04,-7.67 0,-0.5 0.5,-0.5 0.61,-0.5 0.39,0 0.55,0.11 0.64,0.55 1.69,5.28 4.99,6.53 6.68,6.53 0.95,0 2.68,-0.44 2.68,-3.33 0,-1.54 -0.84,-4.89 -2.68,-11.86 -0.8,-3.09 -2.54,-5.18 -4.74,-5.18 -0.3,0 -1.44,0 -2.48,0.65 1.25,0.24 2.34,1.28 2.34,2.69 0,1.34 -1.09,1.73 -1.84,1.73 -1.5,0 -2.75,-1.29 -2.75,-2.89 0,-2.28 2.5,-3.28 4.68,-3.28 3.3,0 5.08,3.49 5.24,3.78 0.59,-1.84 2.39,-3.78 5.37,-3.78 5.14,0 7.99,6.42 7.99,7.67 0,0.5 -0.45,0.5 -0.61,0.5 -0.44,0 -0.55,-0.2 -0.64,-0.54 -1.64,-5.33 -5.03,-6.53 -6.63,-6.53 -1.95,0 -2.75,1.59 -2.75,3.29 0,1.1 0.3,2.19 0.86,4.38 z"
           inkscape:connector-curvature="0"
           style="fill:#000000;stroke-width:0" /><path
           id="path9563"
           d="m 501.55,430.54 -1.18,0 c -0.1,-0.76 -0.46,-2.83 -0.91,-3.17 -0.26,-0.2 -2.95,-0.2 -3.44,-0.2 l -6.42,0 c 3.66,3.23 4.88,4.2 6.97,5.84 2.58,2.06 4.98,4.22 4.98,7.53 0,4.22 -3.68,6.8 -8.15,6.8 -4.31,0 -7.25,-3.03 -7.25,-6.23 0,-1.79 1.5,-1.96 1.86,-1.96 0.83,0 1.84,0.6 1.84,1.85 0,0.62 -0.25,1.84 -2.06,1.84 1.08,2.47 3.45,3.23 5.09,3.23 3.49,0 5.3,-2.7 5.3,-5.53 0,-3.03 -2.16,-5.43 -3.28,-6.68 l -8.39,-8.3 c -0.36,-0.31 -0.36,-0.39 -0.36,-1.36 l 14.36,0 z"
           inkscape:connector-curvature="0"
           style="fill:#000000;stroke-width:0" /><path
           id="path9565"
           d="m 530.62,425.18 0.01,0.04 0,0.03 0.02,0.06 0.02,0.05 0.01,0.06 0.01,0.05 0.01,0.04 0.02,0.05 0.01,0.04 0.01,0.04 0,0.04 0.01,0.04 0.01,0.04 0.01,0.03 0,0.03 0.01,0.03 0,0.03 0.01,0.03 0,0.03 0.01,0.05 0,0.06 0,0.05 0,0.05 0,0.05 0,0.03 0,0.03 0,0.03 0,0.03 c 0,0.91 -0.68,1.35 -1.43,1.35 -0.5,0 -1.3,-0.3 -1.75,-1.05 -0.1,-0.25 -0.5,-1.78 -0.69,-2.69 -0.36,-1.29 -0.7,-2.64 -1,-3.98 l -2.25,-8.97 c -0.19,-0.75 -2.33,-4.23 -5.63,-4.23 -2.53,0 -3.09,2.18 -3.09,4.03 0,2.29 0.86,5.39 2.55,9.76 0.79,2.05 1,2.6 1,3.6 0,2.23 -1.6,4.07 -4.1,4.07 -4.73,0 -6.57,-7.21 -6.57,-7.67 0,-0.5 0.5,-0.5 0.61,-0.5 0.5,0 0.54,0.11 0.79,0.91 1.35,4.69 3.33,6.17 5.03,6.17 0.39,0 1.25,0 1.25,-1.59 0,-1.25 -0.5,-2.53 -0.86,-3.49 -1.98,-5.28 -2.89,-8.12 -2.89,-10.47 0,-4.42 3.14,-5.92 6.08,-5.92 1.95,0 3.64,0.85 5.03,2.24 -0.64,-2.58 -1.23,-5.03 -3.23,-7.68 -1.3,-1.68 -3.19,-3.14 -5.49,-3.14 -0.68,0 -2.93,0.16 -3.78,2.1 0.8,0 1.46,0 2.14,0.61 0.5,0.43 1,1.09 1,2.03 0,1.55 -1.34,1.75 -1.84,1.75 -1.14,0 -2.8,-0.8 -2.8,-3.24 0,-2.5 2.21,-4.34 5.28,-4.34 5.14,0 10.27,4.55 11.68,10.17 z"
           inkscape:connector-curvature="0"
           style="fill:#000000;stroke-width:0" /></g></g></g></svg>